<svg width="1960" height="990" id="chart-svg" xmlns="http://www.w3.org/2000/svg" style="cursor: default;">
                <defs id="svg-defs-internal">
                    <clipPath id="svg-align-lines-clip">
                        <rect x="-16000" y="-16000" width="40000" height="40000" id="svg-align-lines-clip-rect"></rect>
                    </clipPath>
                    <filter id="svg-filter-DraggingFilter" filterUnits="objectBoundingBox" x="-10%" y="-10%" width="120%" height="120%">
                        <feColorMatrix type="luminanceToAlpha"> </feColorMatrix>
                    </filter>
                    <filter id="svg-filter-ResizingFilter" filterUnits="objectBoundingBox" x="-10%" y="-10%" width="120%" height="120%">
                        <feColorMatrix type="saturate" values="2"> </feColorMatrix>
                    </filter>
                    <filter id="svg-filter-NotSelected" filterUnits="objectBoundingBox" x="-10%" y="-10%" width="120%" height="120%">
                        <feComponentTransfer>
                            <feFuncA type="linear" slope="0.4"></feFuncA>
                        </feComponentTransfer>
                    </filter>

                    <symbol id="tb-resize" width="10" height="10" viewBox="0 0 10 10">
                        <rect x="1" y="1" width="8" height="8" style="stroke-width:1;stroke:black;fill:darkgrey;opacity:0.6;cursor:ne-resize"></rect>
                        <text x="1" y="9" font-size="x-small" style="pointer-events:none">🡗</text>
                        <text x="2" y="8" font-size="x-small" style="pointer-events:none">🡕</text>
                    </symbol>

                    <symbol id="tb-clone-RU" viewBox="-3 -3 26 26">
                        <rect x="-2" y="-2" width="24" height="24" style="stroke-width:2;stroke:#242729;fill:#6C7175;opacity:0.7"></rect>
                        <g fill="#fff"><path d="m8.1 10.2-4.5 4.5 1.7 1.7 4.5-4.5 3.2 3.1v-8h-8z"></path><path d="m17 20v-17h-17v17zm-16-16h15v15h-15z"></path><path d="m3 0v3h1v-2h15v15h-2v1h3v-17z"></path></g>
                    </symbol>
                    <symbol id="tb-clone-LU" viewBox="-3 -3 26 26">
                        <rect x="-2" y="-2" width="24" height="24" style="stroke-width:2;stroke:#242729;fill:#6C7175;opacity:0.7"></rect>
                        <g fill="#fff"><path d="m11.9 10.2 4.5 4.5-1.7 1.7-4.5-4.5-3.2 3.1v-8h8z"></path><path d="m20 20v-17h-17v17zm-1-1h-15v-15h15z"></path><path d="m17 0v3h-1v-2h-15v15h2v1h-3v-17z"></path></g>
                    </symbol>
                    <symbol id="tb-clone-RD" viewBox="-3 -3 26 26">
                        <rect x="-2" y="-2" width="24" height="24" style="stroke-width:2;stroke:#242729;fill:#6C7175;opacity:0.7"></rect>
                        <g fill="#fff"><path d="m11.1 12.8-4.5-4.5 1.7-1.7 4.5 4.5 3.2-3.1v8h-8z"></path><path d="m20 20v-17h-17v17zm-1-1h-15v-15h15z"></path><path d="m17 0v3h-1v-2h-15v15h2v1h-3v-17z"></path></g>
                    </symbol>
                    <symbol id="tb-clone-LD" viewBox="-3 -3 26 26">
                        <rect x="-2" y="-2" width="24" height="24" style="stroke-width:2;stroke:#242729;fill:#6C7175;opacity:0.7"></rect>
                        <g fill="#fff"><path d="m8.9 12.8 4.5-4.5-1.7-1.7-4.5 4.5-3.2-3.1v8h8z"></path><path d="m17 20v-17h-17v17zm-16-16h15v15h-15z"></path><path d="m3 0v3h1v-2h15v15h-2v1h3v-17z"></path></g>
                    </symbol>
                    <symbol id="tb-clone-U" viewBox="-3 -3 26 26">
                        <rect x="-2" y="-2" width="24" height="24" style="stroke-width:2;stroke:#242729;fill:#6C7175;opacity:0.7"></rect>
                        <g fill="#fff"><path d="m8 11v6h3v-6h4l-5.5-6-5.5 6z"></path><path d="m1 0v3 17h17v-16-1-3zm16 19h-15v-15h15zm-15-16v-2h15v2z"></path></g>
                    </symbol>
                    <symbol id="tb-clone-D" viewBox="-3 -3 26 26">
                        <rect x="-2" y="-2" width="24" height="24" style="stroke-width:2;stroke:#242729;fill:#6C7175;opacity:0.7"></rect>
                        <g fill="#fff"><path d="m11 9v-6h-3v6h-4l5.5 6 5.5-6z"></path><path d="m18 20v-3-17h-17v16 1 3zm-16-19h15v15h-15zm15 16v2h-15v-2z"></path></g>
                    </symbol>
                    <symbol id="tb-flip" viewBox="-3 -3 26 26">
                        <rect x="-2" y="-2" width="24" height="24" style="stroke-width:2;stroke:#242729;fill:#6C7175;opacity:0.7"></rect>
                        <g fill="#fff"><path d="m11 4v16l8-4v-16z"></path><path d="m1 0v16l8 4v-16zm7 18.4-6-3v-13.8l6 3z"></path></g>
                    </symbol>
                    <symbol id="tb-forward" viewBox="-3 -3 26 26">
                        <rect x="-2" y="-2" width="24" height="24" style="stroke-width:2;stroke:#242729;fill:#6C7175;opacity:0.7"></rect>
                        <g fill="#fff"><path d="m20 14v-14h-14v14z"></path><path d="m13 13v6h-12v-12h6v-1h-7v14h14v-7z"></path></g>
                    </symbol>
                    <symbol id="tb-backward" viewBox="-3 -3 26 26">
                        <rect x="-2" y="-2" width="24" height="24" style="stroke-width:2;stroke:#242729;fill:#6C7175;opacity:0.7"></rect>
                        <path d="m20 0h-14v6h-6v14h14v-6h6zm-1 13h-12v-12h12z" fill="#fff"></path>
                    </symbol>
                    <symbol id="tb-edit-group" viewBox="-3 -3 26 26">
                        <rect x="-2" y="-2" width="24" height="24" style="stroke-width:2;stroke:#242729;fill:#6C7175;opacity:0.7"></rect>
                        <g fill="#fff"><path d="m17 10v9h-16v-16h9l1-1h-11v18h18v-11z"></path><path d="m18.8 4-9.9 9.9-4.9 2.1 2.1-4.9 9.9-9.9z"></path></g>
                    </symbol>

                    <pattern id="transparent-background" width="32" height="32" patternUnits="userSpaceOnUse">
                        <rect x="0" y="0" width="16" height="16" fill="#E6E6E6"></rect>
                        <rect x="16" y="16" width="16" height="16" fill="#E6E6E6"></rect>

                        <rect x="0" y="16" width="16" height="16" fill="#FFFFFF"></rect>
                        <rect x="16" y="0" width="16" height="16" fill="#FFFFFF"></rect>
                    </pattern>

                    <pattern id="grid8L" x="0" y="0" width="64" height="32" patternUnits="userSpaceOnUse">
                    <line x1="0" y1="0" x2="64" y2="32" stroke-width="1" stroke="#D3D3D3" stroke-opacity="1"></line><line x1="0" y2="0" x2="64" y1="32" stroke-width="1" stroke="#D3D3D3" stroke-opacity="1"></line></pattern>
                    <pattern id="grid8" x="-4" y="-2" width="64" height="32" patternUnits="userSpaceOnUse">
                    <circle cx="4" cy="2" r="1" stroke-width="1" stroke="grey" fill="lightgrey"></circle><circle cx="4" cy="10" r="1" stroke-width="0" stroke="grey" fill="lightgrey"></circle><circle cx="4" cy="18" r="1" stroke-width="0" stroke="grey" fill="lightgrey"></circle><circle cx="4" cy="26" r="1" stroke-width="0" stroke="grey" fill="lightgrey"></circle><circle cx="12" cy="2" r="1" stroke-width="0" stroke="grey" fill="lightgrey"></circle><circle cx="12" cy="10" r="1" stroke-width="0" stroke="grey" fill="lightgrey"></circle><circle cx="12" cy="18" r="1" stroke-width="0" stroke="grey" fill="lightgrey"></circle><circle cx="12" cy="26" r="1" stroke-width="0" stroke="grey" fill="lightgrey"></circle><circle cx="20" cy="2" r="1" stroke-width="0" stroke="grey" fill="lightgrey"></circle><circle cx="20" cy="10" r="1" stroke-width="0" stroke="grey" fill="lightgrey"></circle><circle cx="20" cy="18" r="1" stroke-width="0" stroke="grey" fill="lightgrey"></circle><circle cx="20" cy="26" r="1" stroke-width="0" stroke="grey" fill="lightgrey"></circle><circle cx="28" cy="2" r="1" stroke-width="0" stroke="grey" fill="lightgrey"></circle><circle cx="28" cy="10" r="1" stroke-width="0" stroke="grey" fill="lightgrey"></circle><circle cx="28" cy="18" r="1" stroke-width="0" stroke="grey" fill="lightgrey"></circle><circle cx="28" cy="26" r="1" stroke-width="0" stroke="grey" fill="lightgrey"></circle><circle cx="36" cy="2" r="1" stroke-width="1" stroke="grey" fill="lightgrey"></circle><circle cx="36" cy="10" r="1" stroke-width="0" stroke="grey" fill="lightgrey"></circle><circle cx="36" cy="18" r="1" stroke-width="0" stroke="grey" fill="lightgrey"></circle><circle cx="36" cy="26" r="1" stroke-width="0" stroke="grey" fill="lightgrey"></circle><circle cx="44" cy="2" r="1" stroke-width="0" stroke="grey" fill="lightgrey"></circle><circle cx="44" cy="10" r="1" stroke-width="0" stroke="grey" fill="lightgrey"></circle><circle cx="44" cy="18" r="1" stroke-width="0" stroke="grey" fill="lightgrey"></circle><circle cx="44" cy="26" r="1" stroke-width="0" stroke="grey" fill="lightgrey"></circle><circle cx="52" cy="2" r="1" stroke-width="0" stroke="grey" fill="lightgrey"></circle><circle cx="52" cy="10" r="1" stroke-width="0" stroke="grey" fill="lightgrey"></circle><circle cx="52" cy="18" r="1" stroke-width="0" stroke="grey" fill="lightgrey"></circle><circle cx="52" cy="26" r="1" stroke-width="0" stroke="grey" fill="lightgrey"></circle><circle cx="60" cy="2" r="1" stroke-width="0" stroke="grey" fill="lightgrey"></circle><circle cx="60" cy="10" r="1" stroke-width="0" stroke="grey" fill="lightgrey"></circle><circle cx="60" cy="18" r="1" stroke-width="0" stroke="grey" fill="lightgrey"></circle><circle cx="60" cy="26" r="1" stroke-width="0" stroke="grey" fill="lightgrey"></circle></pattern>
                    <pattern id="grid8F" x="-4" y="-2" width="64" height="32" patternUnits="userSpaceOnUse">
                    <circle cx="4" cy="2" r="1" stroke-width="1" stroke="grey" fill="lightgrey"></circle><circle cx="36" cy="2" r="1" stroke-width="1" stroke="grey" fill="lightgrey"></circle></pattern>
                    <pattern id="grid4L" x="0" y="0" width="32" height="16" patternUnits="userSpaceOnUse">
                    <line x1="0" y1="0" x2="32" y2="16" stroke-width="0.5" stroke="#D3D3D3" stroke-opacity="1"></line><line x1="0" y2="0" x2="32" y1="16" stroke-width="0.5" stroke="#D3D3D3" stroke-opacity="1"></line></pattern>
                    <pattern id="grid4" x="-2" y="-1" width="32" height="16" patternUnits="userSpaceOnUse">
                    <circle cx="2" cy="1" r="0.5" stroke-width="0.5" stroke="grey" fill="lightgrey"></circle><circle cx="2" cy="5" r="0.5" stroke-width="0" stroke="grey" fill="lightgrey"></circle><circle cx="2" cy="9" r="0.5" stroke-width="0" stroke="grey" fill="lightgrey"></circle><circle cx="2" cy="13" r="0.5" stroke-width="0" stroke="grey" fill="lightgrey"></circle><circle cx="6" cy="1" r="0.5" stroke-width="0" stroke="grey" fill="lightgrey"></circle><circle cx="6" cy="5" r="0.5" stroke-width="0" stroke="grey" fill="lightgrey"></circle><circle cx="6" cy="9" r="0.5" stroke-width="0" stroke="grey" fill="lightgrey"></circle><circle cx="6" cy="13" r="0.5" stroke-width="0" stroke="grey" fill="lightgrey"></circle><circle cx="10" cy="1" r="0.5" stroke-width="0" stroke="grey" fill="lightgrey"></circle><circle cx="10" cy="5" r="0.5" stroke-width="0" stroke="grey" fill="lightgrey"></circle><circle cx="10" cy="9" r="0.5" stroke-width="0" stroke="grey" fill="lightgrey"></circle><circle cx="10" cy="13" r="0.5" stroke-width="0" stroke="grey" fill="lightgrey"></circle><circle cx="14" cy="1" r="0.5" stroke-width="0" stroke="grey" fill="lightgrey"></circle><circle cx="14" cy="5" r="0.5" stroke-width="0" stroke="grey" fill="lightgrey"></circle><circle cx="14" cy="9" r="0.5" stroke-width="0" stroke="grey" fill="lightgrey"></circle><circle cx="14" cy="13" r="0.5" stroke-width="0" stroke="grey" fill="lightgrey"></circle><circle cx="18" cy="1" r="0.5" stroke-width="0.5" stroke="grey" fill="lightgrey"></circle><circle cx="18" cy="5" r="0.5" stroke-width="0" stroke="grey" fill="lightgrey"></circle><circle cx="18" cy="9" r="0.5" stroke-width="0" stroke="grey" fill="lightgrey"></circle><circle cx="18" cy="13" r="0.5" stroke-width="0" stroke="grey" fill="lightgrey"></circle><circle cx="22" cy="1" r="0.5" stroke-width="0" stroke="grey" fill="lightgrey"></circle><circle cx="22" cy="5" r="0.5" stroke-width="0" stroke="grey" fill="lightgrey"></circle><circle cx="22" cy="9" r="0.5" stroke-width="0" stroke="grey" fill="lightgrey"></circle><circle cx="22" cy="13" r="0.5" stroke-width="0" stroke="grey" fill="lightgrey"></circle><circle cx="26" cy="1" r="0.5" stroke-width="0" stroke="grey" fill="lightgrey"></circle><circle cx="26" cy="5" r="0.5" stroke-width="0" stroke="grey" fill="lightgrey"></circle><circle cx="26" cy="9" r="0.5" stroke-width="0" stroke="grey" fill="lightgrey"></circle><circle cx="26" cy="13" r="0.5" stroke-width="0" stroke="grey" fill="lightgrey"></circle><circle cx="30" cy="1" r="0.5" stroke-width="0" stroke="grey" fill="lightgrey"></circle><circle cx="30" cy="5" r="0.5" stroke-width="0" stroke="grey" fill="lightgrey"></circle><circle cx="30" cy="9" r="0.5" stroke-width="0" stroke="grey" fill="lightgrey"></circle><circle cx="30" cy="13" r="0.5" stroke-width="0" stroke="grey" fill="lightgrey"></circle></pattern>
                    <pattern id="grid4F" x="-2" y="-1" width="32" height="16" patternUnits="userSpaceOnUse">
                    <circle cx="2" cy="1" r="0.5" stroke-width="0.5" stroke="grey" fill="lightgrey"></circle><circle cx="18" cy="1" r="0.5" stroke-width="0.5" stroke="grey" fill="lightgrey"></circle></pattern>
                    <pattern id="grid2L" x="0" y="0" width="16" height="8" patternUnits="userSpaceOnUse">
                    <line x1="0" y1="0" x2="16" y2="8" stroke-width="0.25" stroke="#D3D3D3" stroke-opacity="1"></line><line x1="0" y2="0" x2="16" y1="8" stroke-width="0.25" stroke="#D3D3D3" stroke-opacity="1"></line></pattern>
                    <pattern id="grid2" x="-1" y="-0.5" width="16" height="8" patternUnits="userSpaceOnUse">
                    <circle cx="1" cy="0.5" r="0.25" stroke-width="0.25" stroke="grey" fill="lightgrey"></circle><circle cx="1" cy="2.5" r="0.25" stroke-width="0" stroke="grey" fill="lightgrey"></circle><circle cx="1" cy="4.5" r="0.25" stroke-width="0" stroke="grey" fill="lightgrey"></circle><circle cx="1" cy="6.5" r="0.25" stroke-width="0" stroke="grey" fill="lightgrey"></circle><circle cx="3" cy="0.5" r="0.25" stroke-width="0" stroke="grey" fill="lightgrey"></circle><circle cx="3" cy="2.5" r="0.25" stroke-width="0" stroke="grey" fill="lightgrey"></circle><circle cx="3" cy="4.5" r="0.25" stroke-width="0" stroke="grey" fill="lightgrey"></circle><circle cx="3" cy="6.5" r="0.25" stroke-width="0" stroke="grey" fill="lightgrey"></circle><circle cx="5" cy="0.5" r="0.25" stroke-width="0" stroke="grey" fill="lightgrey"></circle><circle cx="5" cy="2.5" r="0.25" stroke-width="0" stroke="grey" fill="lightgrey"></circle><circle cx="5" cy="4.5" r="0.25" stroke-width="0" stroke="grey" fill="lightgrey"></circle><circle cx="5" cy="6.5" r="0.25" stroke-width="0" stroke="grey" fill="lightgrey"></circle><circle cx="7" cy="0.5" r="0.25" stroke-width="0" stroke="grey" fill="lightgrey"></circle><circle cx="7" cy="2.5" r="0.25" stroke-width="0" stroke="grey" fill="lightgrey"></circle><circle cx="7" cy="4.5" r="0.25" stroke-width="0" stroke="grey" fill="lightgrey"></circle><circle cx="7" cy="6.5" r="0.25" stroke-width="0" stroke="grey" fill="lightgrey"></circle><circle cx="9" cy="0.5" r="0.25" stroke-width="0.25" stroke="grey" fill="lightgrey"></circle><circle cx="9" cy="2.5" r="0.25" stroke-width="0" stroke="grey" fill="lightgrey"></circle><circle cx="9" cy="4.5" r="0.25" stroke-width="0" stroke="grey" fill="lightgrey"></circle><circle cx="9" cy="6.5" r="0.25" stroke-width="0" stroke="grey" fill="lightgrey"></circle><circle cx="11" cy="0.5" r="0.25" stroke-width="0" stroke="grey" fill="lightgrey"></circle><circle cx="11" cy="2.5" r="0.25" stroke-width="0" stroke="grey" fill="lightgrey"></circle><circle cx="11" cy="4.5" r="0.25" stroke-width="0" stroke="grey" fill="lightgrey"></circle><circle cx="11" cy="6.5" r="0.25" stroke-width="0" stroke="grey" fill="lightgrey"></circle><circle cx="13" cy="0.5" r="0.25" stroke-width="0" stroke="grey" fill="lightgrey"></circle><circle cx="13" cy="2.5" r="0.25" stroke-width="0" stroke="grey" fill="lightgrey"></circle><circle cx="13" cy="4.5" r="0.25" stroke-width="0" stroke="grey" fill="lightgrey"></circle><circle cx="13" cy="6.5" r="0.25" stroke-width="0" stroke="grey" fill="lightgrey"></circle><circle cx="15" cy="0.5" r="0.25" stroke-width="0" stroke="grey" fill="lightgrey"></circle><circle cx="15" cy="2.5" r="0.25" stroke-width="0" stroke="grey" fill="lightgrey"></circle><circle cx="15" cy="4.5" r="0.25" stroke-width="0" stroke="grey" fill="lightgrey"></circle><circle cx="15" cy="6.5" r="0.25" stroke-width="0" stroke="grey" fill="lightgrey"></circle></pattern>
                    <pattern id="grid2F" x="-1" y="-0.5" width="16" height="8" patternUnits="userSpaceOnUse">
                    <circle cx="1" cy="0.5" r="0.25" stroke-width="0.25" stroke="grey" fill="lightgrey"></circle><circle cx="9" cy="0.5" r="0.25" stroke-width="0.25" stroke="grey" fill="lightgrey"></circle></pattern>
                    <pattern id="gridoffL" x="0" y="0" width="16" height="8" patternUnits="userSpaceOnUse">
                    <line x1="0" y1="0" x2="16" y2="8" stroke-width="0.25" stroke="#D3D3D3" stroke-opacity="1"></line><line x1="0" y2="0" x2="16" y1="8" stroke-width="0.25" stroke="#D3D3D3" stroke-opacity="1"></line></pattern>
                    <pattern id="gridoff" x="-1" y="-0.5" width="16" height="8" patternUnits="userSpaceOnUse">
                    </pattern>
                    <pattern id="gridoffF" x="-1" y="-0.5" width="16" height="8" patternUnits="userSpaceOnUse">
                    </pattern>

                </defs>
                <defs id="icograms-svg-defs">
                    <style id="icograms-svg-defs-style-fonts" type="text/css">

                    </style>
                </defs>
            <g id="chart-top-container"><g id="chart-background-container"><g id="chart-transparent"><rect width="8000" height="8000" fill="rgb(255, 255, 255)"></rect><rect x="0" y="0" width="8000" height="8000" fill="url(#transparent-background)"></rect></g><rect id="chart-background-color" width="8000" height="8000" fill="#FFFFFF" stroke="none" fill-opacity="1.0"></rect></g><g id="chart-grid-container-back" style="pointer-events:none"><g id="chart-grid-cell-back"><rect x="0" y="0" width="8000" height="8000" fill="url(#grid8L)"></rect></g><g id="chart-grid-dotted-back"><rect x="0" y="0" width="8000" height="8000" fill="url(#grid8)"></rect></g></g><g id="chart-container"><g id="i52" class="lvl-1" transform="translate(544,128)"><g><path d="M0,-16L0,-80L32,-64L32,0Z" fill="#F8EBCB"></path> <path d="M0,-16L0,-80L32,-64L32,0Z" opacity="0.11"></path> <path d="M32,-64L32,0L96,-32L96,-96Z" fill="#F8EBCB"></path> <path d="M32,-64L32,0L96,-32L96,-96Z" opacity="0.29"></path> <path d="M0,-80L32,-64L96,-96L64,-112Z" fill="#F8EBCB"></path> </g></g><g id="i51" class="lvl-1" transform="translate(512,144)"><g><path d="M0,-16L0,-64L32,-48L32,0Z" fill="#F8EBCB"></path> <path d="M0,-16L0,-64L32,-48L32,0Z" opacity="0.11"></path> <path d="M32,-48L32,0L64,-16L64,-64Z" fill="#F8EBCB"></path> <path d="M32,-48L32,0L64,-16L64,-64Z" opacity="0.29"></path> <path d="M0,-64L32,-48L64,-64L32,-80Z" fill="#F8EBCB"></path> </g></g><g id="i48" class="lvl-1" transform="translate(480,160)"><g><path d="M0,-16L0,-48L32,-32L32,0Z" fill="#F8EBCB"></path> <path d="M0,-16L0,-48L32,-32L32,0Z" opacity="0.11"></path> <path d="M32,-32L32,0L64,-16L64,-48Z" fill="#F8EBCB"></path> <path d="M32,-32L32,0L64,-16L64,-48Z" opacity="0.29"></path> <path d="M0,-48L32,-32L64,-48L32,-64Z" fill="#F8EBCB"></path> </g></g><g id="i36" class="lvl-1" transform="translate(192,128)"><g><path d="M0,-32L0,-96L64,-64L64,0Z" fill="#F8EBCB"></path> <path d="M0,-32L0,-96L64,-64L64,0Z" opacity="0.11"></path> <path d="M64,-64L64,0L96,-16L96,-80Z" fill="#F8EBCB"></path> <path d="M64,-64L64,0L96,-16L96,-80Z" opacity="0.29"></path> <path d="M0,-96L64,-64L96,-80L32,-112Z" fill="#F8EBCB"></path> </g></g><g id="i34" class="lvl-1" transform="translate(256,144)"><g><path d="M0,-16L0,-64L32,-48L32,0Z" fill="#F8EBCB"></path> <path d="M0,-16L0,-64L32,-48L32,0Z" opacity="0.11"></path> <path d="M32,-48L32,0L64,-16L64,-64Z" fill="#F8EBCB"></path> <path d="M32,-48L32,0L64,-16L64,-64Z" opacity="0.29"></path> <path d="M0,-64L32,-48L64,-64L32,-80Z" fill="#F8EBCB"></path> </g></g><g id="i47" class="lvl-1" transform="translate(288,160)"><g><path d="M0,-16L0,-48L32,-32L32,0Z" fill="#F8EBCB"></path> <path d="M0,-16L0,-48L32,-32L32,0Z" opacity="0.11"></path> <path d="M32,-32L32,0L64,-16L64,-48Z" fill="#F8EBCB"></path> <path d="M32,-32L32,0L64,-16L64,-48Z" opacity="0.29"></path> <path d="M0,-48L32,-32L64,-48L32,-64Z" fill="#F8EBCB"></path> </g></g><g id="i26" class="lvl-1" transform="translate(320,224)"><g><path d="M0,-32A32,16,0,0,1,64,-32V-16A32,16,0,0,1,0,-16Z" fill="#993399"></path> <path d="M0,-32A32,16,0,0,0,64,-32V-16A32,16,0,0,1,0,-16Z" fill="#993399"></path> <path d="M0,-32A32,16,0,0,0,64,-32V-16A32,16,0,0,1,0,-16Z" opacity="0.2"></path> </g></g><g id="i9" class="lvl-1" transform="translate(192,304)"><g><path d="M0,-16L0,-48L32,-32L32,0Z" fill="#F8EBCB"></path> <path d="M0,-16L0,-48L32,-32L32,0Z" opacity="0.11"></path> <path d="M32,-32L32,0L160,-64L160,-96Z" fill="#F8EBCB"></path> <path d="M32,-32L32,0L160,-64L160,-96Z" opacity="0.29"></path> <path d="M0,-48L32,-32L160,-96L128,-112Z" fill="#F8EBCB"></path> </g></g><g id="i27" class="lvl-1" transform="translate(320,160)"><g><path d="M0,-32A32,16,0,0,1,64,-32V-16A32,16,0,0,1,0,-16Z" fill="#993399"></path> <path d="M0,-32A32,16,0,0,0,64,-32V-16A32,16,0,0,1,0,-16Z" fill="#993399"></path> <path d="M0,-32A32,16,0,0,0,64,-32V-16A32,16,0,0,1,0,-16Z" opacity="0.2"></path> </g></g><g id="i28" class="lvl-1" transform="translate(448,160)"><g><path d="M0,-32A32,16,0,0,1,64,-32V-16A32,16,0,0,1,0,-16Z" fill="#993399"></path> <path d="M0,-32A32,16,0,0,0,64,-32V-16A32,16,0,0,1,0,-16Z" fill="#993399"></path> <path d="M0,-32A32,16,0,0,0,64,-32V-16A32,16,0,0,1,0,-16Z" opacity="0.2"></path> </g></g><g id="i29" class="lvl-1" transform="translate(448,224)"><g><path d="M0,-32A32,16,0,0,1,64,-32V-16A32,16,0,0,1,0,-16Z" fill="#993399"></path> <path d="M0,-32A32,16,0,0,0,64,-32V-16A32,16,0,0,1,0,-16Z" fill="#993399"></path> <path d="M0,-32A32,16,0,0,0,64,-32V-16A32,16,0,0,1,0,-16Z" opacity="0.2"></path> </g></g><g id="i35" class="lvl-1" transform="translate(256,48)"><g>
<polygon fill="#F8EBCB" points="32,0 36,2 36,4 40,6 40,8 44,10 44,12 48,14 48,16 52,18 52,20 56,22 56,24 60,26 60,28 64,30   64,32 32,48 0,32 0,16 "></polygon>
<polygon opacity="0.29" points="64,30 32,46 32,48 64,32 "></polygon>
<polygon opacity="0.29" points="60,26 28,42 28,44 60,28 "></polygon>
<polygon opacity="0.29" points="56,22 24,38 24,40 56,24 "></polygon>
<polygon opacity="0.29" points="52,18 20,34 20,36 52,20 "></polygon>
<polygon opacity="0.29" points="48,14 16,30 16,32 48,16 "></polygon>
<polygon opacity="0.29" points="44,10 12,26 12,28 44,12 "></polygon>
<polygon opacity="0.29" points="40,6 8,22 8,24 40,8 "></polygon>
<polygon opacity="0.29" points="36,2 4,18 4,20 36,4 "></polygon>
<polygon opacity="0.11" points="4,18 4,20 8,22 8,23 8,24 12,26 12,28 16,30 16,32 20,34 20,36 24,38 24,40 28,42 28,44 32,46   32,48 0,32 0,16 "></polygon>

</g></g><g id="i30" class="lvl-1" transform="translate(288,80)"><g>
<polygon fill="#F8EBCB" points="32,0 36,2 36,4 40,6 40,8 44,10 44,12 48,14 48,16 52,18 52,20 56,22 56,24 60,26 60,28 64,30   64,32 32,48 0,32 0,16 "></polygon>
<polygon opacity="0.29" points="64,30 32,46 32,48 64,32 "></polygon>
<polygon opacity="0.29" points="60,26 28,42 28,44 60,28 "></polygon>
<polygon opacity="0.29" points="56,22 24,38 24,40 56,24 "></polygon>
<polygon opacity="0.29" points="52,18 20,34 20,36 52,20 "></polygon>
<polygon opacity="0.29" points="48,14 16,30 16,32 48,16 "></polygon>
<polygon opacity="0.29" points="44,10 12,26 12,28 44,12 "></polygon>
<polygon opacity="0.29" points="40,6 8,22 8,24 40,8 "></polygon>
<polygon opacity="0.29" points="36,2 4,18 4,20 36,4 "></polygon>
<polygon opacity="0.11" points="4,18 4,20 8,22 8,23 8,24 12,26 12,28 16,30 16,32 20,34 20,36 24,38 24,40 28,42 28,44 32,46   32,48 0,32 0,16 "></polygon>

</g></g><g id="i37" class="lvl-1" transform="translate(208,16)"><g><path d="m3.6 1h24.8c1.4 0 2.6 1.2 2.6 2.6v24.8c0 1.4-1.2 2.6-2.6 2.6h-24.8c-1.4 0-2.6-1.2-2.6-2.6v-24.8c0-1.4 1.2-2.6 2.6-2.6z" fill="#CC291F"></path><path clip-rule="evenodd" d="m27 13h-8v-8h-6v8h-8v6h8v8h6v-8h8z" fill="#fff" fill-rule="evenodd"></path>
</g></g><g id="i39" class="lvl-1" transform="translate(480,256)"><g><path d="M0,-16L0,-48L32,-32L32,0Z" fill="#F8EBCB"></path> <path d="M0,-16L0,-48L32,-32L32,0Z" opacity="0.11"></path> <path d="M32,-32L32,0L64,-16L64,-48Z" fill="#F8EBCB"></path> <path d="M32,-32L32,0L64,-16L64,-48Z" opacity="0.29"></path> <path d="M0,-48L32,-32L64,-48L32,-64Z" fill="#F8EBCB"></path> </g></g><g id="i40" class="lvl-1" transform="translate(480,184)"><g>
<g>
	<polygon fill="#F8EBCB" points="60,6 58,7 56,6 54,7 52,6 50,7 48,6 46,7 44,6 42,7 40,6 38,7 36,6 34,7 32,6 0,22 0,24 32,40    64,24 64,8  "></polygon>
	<polygon opacity="0.29" points="64,8 64,24 32,40 32,24  "></polygon>
	<polygon opacity="0.11" points="0,22 4,24 4,22 8,24 8,22 12,24 12,22 16,24 16,22 20,24 20,22 24,24 24,22 28,24 28,22 32,24    32,40 0,24  "></polygon>
</g>

</g></g><g id="i43" class="lvl-1" transform="translate(512,272)"><g><path d="M0,-16L0,-64L32,-48L32,0Z" fill="#F8EBCB"></path> <path d="M0,-16L0,-64L32,-48L32,0Z" opacity="0.11"></path> <path d="M32,-48L32,0L64,-16L64,-64Z" fill="#F8EBCB"></path> <path d="M32,-48L32,0L64,-16L64,-64Z" opacity="0.29"></path> <path d="M0,-64L32,-48L64,-64L32,-80Z" fill="#F8EBCB"></path> </g></g><g id="i44" class="lvl-1" transform="translate(512,184)"><g>
<g>
	<polygon fill="#F8EBCB" points="60,6 58,7 56,6 54,7 52,6 50,7 48,6 46,7 44,6 42,7 40,6 38,7 36,6 34,7 32,6 0,22 0,24 32,40    64,24 64,8  "></polygon>
	<polygon opacity="0.29" points="64,8 64,24 32,40 32,24  "></polygon>
	<polygon opacity="0.11" points="0,22 4,24 4,22 8,24 8,22 12,24 12,22 16,24 16,22 20,24 20,22 24,24 24,22 28,24 28,22 32,24    32,40 0,24  "></polygon>
</g>

</g></g><g id="i46" class="lvl-1" transform="translate(544,304)"><g><path d="M0,-32L0,-96L64,-64L64,0Z" fill="#F8EBCB"></path> <path d="M0,-32L0,-96L64,-64L64,0Z" opacity="0.11"></path> <path d="M64,-64L64,0L96,-16L96,-80Z" fill="#F8EBCB"></path> <path d="M64,-64L64,0L96,-16L96,-80Z" opacity="0.29"></path> <path d="M0,-96L64,-64L96,-80L32,-112Z" fill="#F8EBCB"></path> </g></g><g id="i50" class="lvl-1" transform="translate(512,48)"><g>
<polygon fill="#F8EBCB" points="32,0 28,2 28,4 24,6 24,8 20,10 20,12 16,14 16,16 12,18 12,20 8,22 8,24 4,26 4,28 0,30 0,32   32,48 64,32 64,16 "></polygon>
<polygon opacity="0.11" points="0,30 32,46 32,48 0,32 "></polygon>
<polygon opacity="0.11" points="4,26 36,42 36,44 4,28 "></polygon>
<polygon opacity="0.11" points="8,22 40,38 40,40 8,24 "></polygon>
<polygon opacity="0.11" points="12,18 44,34 44,36 12,20 "></polygon>
<polygon opacity="0.11" points="16,14 48,30 48,32 16,16 "></polygon>
<polygon opacity="0.11" points="20,10 52,26 52,28 20,12 "></polygon>
<polygon opacity="0.11" points="24,6 56,22 56,24 24,8 "></polygon>
<polygon opacity="0.11" points="28,2 60,18 60,20 28,4 "></polygon>
<polygon opacity="0.29" points="60,18 60,20 56,22 56,23 56,24 52,26 52,28 48,30 48,32 44,34 44,36 40,38 40,40 36,42 36,44 32,46   32,48 64,32 64,16 "></polygon>

</g></g><g id="i49" class="lvl-1" transform="translate(480,80)"><g>
<polygon fill="#F8EBCB" points="32,0 28,2 28,4 24,6 24,8 20,10 20,12 16,14 16,16 12,18 12,20 8,22 8,24 4,26 4,28 0,30 0,32   32,48 64,32 64,16 "></polygon>
<polygon opacity="0.11" points="0,30 32,46 32,48 0,32 "></polygon>
<polygon opacity="0.11" points="4,26 36,42 36,44 4,28 "></polygon>
<polygon opacity="0.11" points="8,22 40,38 40,40 8,24 "></polygon>
<polygon opacity="0.11" points="12,18 44,34 44,36 12,20 "></polygon>
<polygon opacity="0.11" points="16,14 48,30 48,32 16,16 "></polygon>
<polygon opacity="0.11" points="20,10 52,26 52,28 20,12 "></polygon>
<polygon opacity="0.11" points="24,6 56,22 56,24 24,8 "></polygon>
<polygon opacity="0.11" points="28,2 60,18 60,20 28,4 "></polygon>
<polygon opacity="0.29" points="60,18 60,20 56,22 56,23 56,24 52,26 52,28 48,30 48,32 44,34 44,36 40,38 40,40 36,42 36,44 32,46   32,48 64,32 64,16 "></polygon>

</g></g><g id="i55" class="lvl-1" transform="translate(592,208)"><g><path clip-rule="evenodd" d="m15 0h13l-14 14h12l-18 18 7-14h-9z" fill="#2d3134" fill-rule="evenodd"></path>
</g></g><g id="i56" class="lvl-1" transform="translate(592,8)"><g>
<path fill="#2D3134" d="M29.4,17c-1.7-1.7-3.9-2.6-6.2-2.6C24.3,12.9,25,11,25,9c0-4.2-2.8-7.7-6.7-8.7C21.1,1.3,23,3.9,23,7  c0,2.3-1.1,4.3-2.7,5.5C19.1,11.6,17.6,11,16,11s-3.1,0.6-4.3,1.5C10,11.2,9,9.2,9,7c0-3.1,2-5.7,4.7-6.7C9.8,1.3,7,4.8,7,9  c0,2.1,0.7,4,1.9,5.6c-2.3,0-4.6,0.8-6.3,2.5c-2.8,2.8-3.3,7.1-1.3,10.5c-1.2-2.5-0.8-5.6,1.3-7.7C4.3,18.1,6.8,17.5,9,18  c0,3.2,2.2,5.9,5.1,6.7c0,1.7-0.7,3.3-2,4.6c-2.1,2.1-5.2,2.5-7.7,1.3c3.3,1.9,7.6,1.5,10.5-1.3c0.4-0.4,0.8-0.9,1.1-1.3  c0.3,0.5,0.7,0.9,1.1,1.3c2.9,2.9,7.2,3.3,10.6,1.4c-2.5,1.2-5.7,0.8-7.8-1.3c-1.3-1.3-1.9-2.9-2-4.6c3-0.8,5.2-3.5,5.2-6.8  c0,0,0,0,0-0.1c2.2-0.5,4.7,0,6.4,1.8c2.1,2.1,2.5,5.3,1.3,7.8C32.7,24.2,32.2,19.8,29.4,17z M18.1,22.5c0.2-0.6,0.4-1.2,0.8-1.7  L17,19.7c-0.3,0.2-0.6,0.3-1,0.3s-0.7-0.1-1-0.3l-2,1.1c0.3,0.5,0.6,1,0.7,1.6c-1.3-0.7-2.4-1.9-2.7-3.5c0.2,0.1,0.4,0.2,0.6,0.4  L14,18c0-0.7,0.4-1.4,1-1.7v-2.4c-0.5-0.1-0.9-0.2-1.3-0.3c0.7-0.4,1.5-0.6,2.3-0.6s1.6,0.2,2.3,0.6c-0.4,0.1-0.9,0.3-1.3,0.3v2.4  c0.6,0.3,1,1,1,1.7l2.2,1.3c0.2-0.2,0.5-0.3,0.7-0.5C20.6,20.5,19.6,21.8,18.1,22.5z"></path>

</g></g><g id="i58" class="lvl-1" transform="translate(704,72)"><g><path d="M0,-8L0,-24L16,-16L16,0Z" fill="#F8EBCB"></path> <path d="M0,-8L0,-24L16,-16L16,0Z" opacity="0.11"></path> <path d="M16,-16L16,0L32,-8L32,-24Z" fill="#F8EBCB"></path> <path d="M16,-16L16,0L32,-8L32,-24Z" opacity="0.29"></path> <path d="M0,-24L16,-16L32,-24L16,-32Z" fill="#F8EBCB"></path> </g></g><g id="i61" class="lvl-1" transform="translate(736,44)"><g><text fill="#2d3134" font-family="Arial" font-size="14" style="white-space:pre"><tspan x="4" y="18"><tspan style="">Ground</tspan></tspan></text>
</g></g><g id="i62" class="lvl-1" transform="translate(702,122)"><g><path d="M0,-25A18,9,0,0,1,36,-25V-9A18,9,0,0,1,0,-9Z" fill="#993399"></path> <path d="M0,-25A18,9,0,0,0,36,-25V-9A18,9,0,0,1,0,-9Z" fill="#993399"></path> <path d="M0,-25A18,9,0,0,0,36,-25V-9A18,9,0,0,1,0,-9Z" opacity="0.2"></path> </g></g><g id="i63" class="lvl-1" transform="translate(736,92)"><g><text fill="#2d3134" font-family="Arial" font-size="14" style="white-space:pre"><tspan x="4" y="18"><tspan style="">Moving Platform</tspan></tspan><tspan x="4" y="32"></tspan></text>
</g></g><g id="i65" class="lvl-1" transform="translate(704,144)"><g><path d="m30 16-8-4v2h-6v4h6v2zm-8 12h-8v-24h8v6h2v-8h-10v-2l-10 2v28l10 2v-2h10v-8h-2z" fill="#2d3134"></path>
</g></g><g id="i66" class="lvl-1" transform="translate(704,192)translate(32,0)scale(-1, 1)"><g><path d="m3.6 1h24.8c1.4 0 2.6 1.2 2.6 2.6v24.8c0 1.4-1.2 2.6-2.6 2.6h-24.8c-1.4 0-2.6-1.2-2.6-2.6v-24.8c0-1.4 1.2-2.6 2.6-2.6z" fill="#CC291F"></path><path clip-rule="evenodd" d="m27 13h-8v-8h-6v8h-8v6h8v8h6v-8h8z" fill="#fff" fill-rule="evenodd"></path>
</g></g><g id="i67" class="lvl-1" transform="translate(704,244)"><g><path clip-rule="evenodd" d="m15 0h13l-14 14h12l-18 18 7-14h-9z" fill="#2d3134" fill-rule="evenodd"></path>
</g></g><g id="i68" class="lvl-1" transform="translate(704,288)"><g>
<path fill="#2D3134" d="M29.4,17c-1.7-1.7-3.9-2.6-6.2-2.6C24.3,12.9,25,11,25,9c0-4.2-2.8-7.7-6.7-8.7C21.1,1.3,23,3.9,23,7  c0,2.3-1.1,4.3-2.7,5.5C19.1,11.6,17.6,11,16,11s-3.1,0.6-4.3,1.5C10,11.2,9,9.2,9,7c0-3.1,2-5.7,4.7-6.7C9.8,1.3,7,4.8,7,9  c0,2.1,0.7,4,1.9,5.6c-2.3,0-4.6,0.8-6.3,2.5c-2.8,2.8-3.3,7.1-1.3,10.5c-1.2-2.5-0.8-5.6,1.3-7.7C4.3,18.1,6.8,17.5,9,18  c0,3.2,2.2,5.9,5.1,6.7c0,1.7-0.7,3.3-2,4.6c-2.1,2.1-5.2,2.5-7.7,1.3c3.3,1.9,7.6,1.5,10.5-1.3c0.4-0.4,0.8-0.9,1.1-1.3  c0.3,0.5,0.7,0.9,1.1,1.3c2.9,2.9,7.2,3.3,10.6,1.4c-2.5,1.2-5.7,0.8-7.8-1.3c-1.3-1.3-1.9-2.9-2-4.6c3-0.8,5.2-3.5,5.2-6.8  c0,0,0,0,0-0.1c2.2-0.5,4.7,0,6.4,1.8c2.1,2.1,2.5,5.3,1.3,7.8C32.7,24.2,32.2,19.8,29.4,17z M18.1,22.5c0.2-0.6,0.4-1.2,0.8-1.7  L17,19.7c-0.3,0.2-0.6,0.3-1,0.3s-0.7-0.1-1-0.3l-2,1.1c0.3,0.5,0.6,1,0.7,1.6c-1.3-0.7-2.4-1.9-2.7-3.5c0.2,0.1,0.4,0.2,0.6,0.4  L14,18c0-0.7,0.4-1.4,1-1.7v-2.4c-0.5-0.1-0.9-0.2-1.3-0.3c0.7-0.4,1.5-0.6,2.3-0.6s1.6,0.2,2.3,0.6c-0.4,0.1-0.9,0.3-1.3,0.3v2.4  c0.6,0.3,1,1,1,1.7l2.2,1.3c0.2-0.2,0.5-0.3,0.7-0.5C20.6,20.5,19.6,21.8,18.1,22.5z"></path>

</g></g><g id="i69" class="lvl-1" transform="translate(736,148)"><g><text fill="#2d3134" font-family="Arial" font-size="14" style="white-space:pre"><tspan x="4" y="18"><tspan style="">Exit</tspan></tspan><tspan x="4" y="32"></tspan></text>
</g></g><g id="i70" class="lvl-1" transform="translate(736,196)"><g><text fill="#2d3134" font-family="Arial" font-size="14" style="white-space:pre"><tspan x="4" y="18"><tspan style="">Health Boost</tspan></tspan></text>
</g></g><g id="i71" class="lvl-1" transform="translate(736,244)"><g><text fill="#2d3134" font-family="Arial" font-size="14" style="white-space:pre"><tspan x="4" y="18"><tspan style="">Strength Boost</tspan></tspan></text>
</g></g><g id="i72" class="lvl-1" transform="translate(748,280)"><g><text fill="#2d3134" font-family="Arial" font-size="14" style="white-space:pre"><tspan x="4" y="18"><tspan style="">Goal</tspan></tspan></text>
</g></g><g id="i83" class="lvl-1" transform="translate(32,992)"><g><path d="M0,-80L0,-112L160,-32L160,0Z" fill="#F8EBCB"></path> <path d="M0,-80L0,-112L160,-32L160,0Z" opacity="0.11"></path> <path d="M160,-32L160,0L384,-112L384,-144Z" fill="#F8EBCB"></path> <path d="M160,-32L160,0L384,-112L384,-144Z" opacity="0.29"></path> <path d="M0,-112L160,-32L384,-144L224,-224Z" fill="#F8EBCB"></path> </g></g><g id="i80" class="lvl-1" transform="translate(160,832)"><g><path d="M0,-16L0,-304L32,-288L32,0Z" fill="#F8EBCB"></path> <path d="M0,-16L0,-304L32,-288L32,0Z" opacity="0.11"></path> <path d="M32,-288L32,0L64,-16L64,-304Z" fill="#F8EBCB"></path> <path d="M32,-288L32,0L64,-16L64,-304Z" opacity="0.29"></path> <path d="M0,-304L32,-288L64,-304L32,-320Z" fill="#F8EBCB"></path> </g></g><g id="i85" class="lvl-1" transform="translate(416,736)"><g>
<polygon fill="#F8EBCB" points="32,0 0,48 32,64 64,48 64,16 "></polygon>
<polygon opacity="0.11" points="32,0 64,16 32,64 0,48 "></polygon>
<polygon opacity="0.29" points="64,16 64,48 32,64 "></polygon>

</g></g><g id="i84" class="lvl-1" transform="translate(384,784)"><g>
<polygon fill="#F8EBCB" points="32,0 0,48 32,64 64,48 64,16 "></polygon>
<polygon opacity="0.11" points="32,0 64,16 32,64 0,48 "></polygon>
<polygon opacity="0.29" points="64,16 64,48 32,64 "></polygon>

</g></g><g id="i91" class="lvl-1" transform="translate(512,688)"><g><path d="M0,-16L0,-48L32,-32L32,0Z" fill="#F8EBCB"></path> <path d="M0,-16L0,-48L32,-32L32,0Z" opacity="0.11"></path> <path d="M32,-32L32,0L64,-16L64,-48Z" fill="#F8EBCB"></path> <path d="M32,-32L32,0L64,-16L64,-48Z" opacity="0.29"></path> <path d="M0,-48L32,-32L64,-48L32,-64Z" fill="#F8EBCB"></path> </g></g><g id="i96" class="lvl-1" transform="translate(480,640)"><g>
<polygon fill="#F8EBCB" points="32,0 0,48 32,64 64,48 64,16 "></polygon>
<polygon opacity="0.11" points="32,0 64,16 32,64 0,48 "></polygon>
<polygon opacity="0.29" points="64,16 64,48 32,64 "></polygon>

</g></g><g id="i86" class="lvl-1" transform="translate(448,688)"><g>
<polygon fill="#F8EBCB" points="32,0 0,48 32,64 64,48 64,16 "></polygon>
<polygon opacity="0.11" points="32,0 64,16 32,64 0,48 "></polygon>
<polygon opacity="0.29" points="64,16 64,48 32,64 "></polygon>

</g></g><g id="i92" class="lvl-1" transform="translate(448,624)"><g><path d="M0,-16L0,-48L32,-32L32,0Z" fill="#F8EBCB"></path> <path d="M0,-16L0,-48L32,-32L32,0Z" opacity="0.11"></path> <path d="M32,-32L32,0L64,-16L64,-48Z" fill="#F8EBCB"></path> <path d="M32,-32L32,0L64,-16L64,-48Z" opacity="0.29"></path> <path d="M0,-48L32,-32L64,-48L32,-64Z" fill="#F8EBCB"></path> </g></g><g id="i90" class="lvl-1" transform="translate(480,576)"><g>
<polygon fill="#F8EBCB" points="32,0 0,16 0,48 32,64 64,48 "></polygon>
<polygon opacity="0.11" points="0,16 32,64 0,48 "></polygon>
<polygon opacity="0.29" points="32,0 64,48 32,64 0,16 "></polygon>

</g></g><g id="i93" class="lvl-1" transform="translate(416,560)"><g>
<polygon fill="#F8EBCB" points="0,0 0,32 32,48 64,32 "></polygon>
<polygon opacity="0.11" points="0,0 32,16 32,48 0,32 "></polygon>
<polygon opacity="0.29" points="64,32 32,48 32,16 "></polygon>

</g></g><g id="i94" class="lvl-1" transform="translate(384,544)"><g>
<polygon fill="#F8EBCB" points="0,0 0,32 32,48 64,32 "></polygon>
<polygon opacity="0.11" points="0,0 32,16 32,48 0,32 "></polygon>
<polygon opacity="0.29" points="64,32 32,48 32,16 "></polygon>

</g></g><g id="i81" class="lvl-1" transform="translate(288,896)"><g><path d="M0,-16L0,-304L32,-288L32,0Z" fill="#F8EBCB"></path> <path d="M0,-16L0,-304L32,-288L32,0Z" opacity="0.11"></path> <path d="M32,-288L32,0L64,-16L64,-304Z" fill="#F8EBCB"></path> <path d="M32,-288L32,0L64,-16L64,-304Z" opacity="0.29"></path> <path d="M0,-304L32,-288L64,-304L32,-320Z" fill="#F8EBCB"></path> </g></g><g id="i97" class="lvl-1" transform="translate(352,528)"><g>
<polygon fill="#F8EBCB" points="0,0 0,32 32,48 64,32 "></polygon>
<polygon opacity="0.11" points="0,0 32,16 32,48 0,32 "></polygon>
<polygon opacity="0.29" points="64,32 32,48 32,16 "></polygon>

</g></g><g id="i98" class="lvl-1" transform="translate(320,512)"><g>
<polygon fill="#F8EBCB" points="0,0 0,32 32,48 64,32 "></polygon>
<polygon opacity="0.11" points="0,0 32,16 32,48 0,32 "></polygon>
<polygon opacity="0.29" points="64,32 32,48 32,16 "></polygon>

</g></g><g id="i99" class="lvl-1" transform="translate(288,496)"><g>
<polygon fill="#F8EBCB" points="0,0 0,32 32,48 64,32 "></polygon>
<polygon opacity="0.11" points="0,0 32,16 32,48 0,32 "></polygon>
<polygon opacity="0.29" points="64,32 32,48 32,16 "></polygon>

</g></g><g id="i100" class="lvl-1" transform="translate(256,560)"><g><path d="M0,-16L0,-48L32,-32L32,0Z" fill="#F8EBCB"></path> <path d="M0,-16L0,-48L32,-32L32,0Z" opacity="0.11"></path> <path d="M32,-32L32,0L64,-16L64,-48Z" fill="#F8EBCB"></path> <path d="M32,-32L32,0L64,-16L64,-48Z" opacity="0.29"></path> <path d="M0,-48L32,-32L64,-48L32,-64Z" fill="#F8EBCB"></path> </g></g><g id="i101" class="lvl-1" transform="translate(32,672)"><g><path d="M0,-80L0,-112L160,-32L160,0Z" fill="#F8EBCB"></path> <path d="M0,-80L0,-112L160,-32L160,0Z" opacity="0.11"></path> <path d="M160,-32L160,0L320,-80L320,-112Z" fill="#F8EBCB"></path> <path d="M160,-32L160,0L320,-80L320,-112Z" opacity="0.29"></path> <path d="M0,-112L160,-32L320,-112L160,-192Z" fill="#F8EBCB"></path> </g></g><g id="i107" class="lvl-1" transform="translate(96,560)"><g><path d="M0,-16L0,-32L32,-16L32,0Z" fill="#FCCC84"></path> <path d="M0,-16L0,-32L32,-16L32,0Z" opacity="0.11"></path> <path d="M32,-16L32,0L96,-32L96,-48Z" fill="#FCCC84"></path> <path d="M32,-16L32,0L96,-32L96,-48Z" opacity="0.29"></path> <path d="M0,-32L32,-16L96,-48L64,-64Z" fill="#FCCC84"></path> </g></g><g id="i114" class="lvl-1" transform="translate(160,384)"><g><path d="M0,-32L0,-48L64,-16L64,0Z" fill="#3399CC"></path> <path d="M0,-32L0,-48L64,-16L64,0Z" opacity="0.11"></path> <path d="M64,-16L64,0L96,-16L96,-32Z" fill="#3399CC"></path> <path d="M64,-16L64,0L96,-16L96,-32Z" opacity="0.29"></path> <path d="M0,-48L64,-16L96,-32L32,-64Z" fill="#3399CC"></path> </g></g><g id="i115" class="lvl-1" transform="translate(96,432)"><g><path d="M0,-16L0,-32L32,-16L32,0Z" fill="#FCCC84"></path> <path d="M0,-16L0,-32L32,-16L32,0Z" opacity="0.11"></path> <path d="M32,-16L32,0L96,-32L96,-48Z" fill="#FCCC84"></path> <path d="M32,-16L32,0L96,-32L96,-48Z" opacity="0.29"></path> <path d="M0,-32L32,-16L96,-48L64,-64Z" fill="#FCCC84"></path> </g></g><g id="i116" class="lvl-1" transform="translate(128,336)"><g>
<polygon fill="#FCCC84" points="32,0 0,48 32,64 64,48 64,16 "></polygon>
<polygon opacity="0.11" points="32,0 64,16 32,64 0,48 "></polygon>
<polygon opacity="0.29" points="64,16 64,48 32,64 "></polygon>

</g></g><g id="i117" class="lvl-1" transform="translate(192,320)"><g>
<polygon fill="#3399CC" points="0,32 32,48 64,32 64,0 "></polygon>
<polygon opacity="0.11" points="32,16 32,48 0,32 "></polygon>
<polygon opacity="0.29" points="64,0 64,32 32,48 32,16 "></polygon>

</g></g><g id="i118" class="lvl-1" transform="translate(192,320)"><g>
<polygon fill="#3399CC" points="0,0 0,32 32,48 64,32 "></polygon>
<polygon opacity="0.11" points="0,0 32,16 32,48 0,32 "></polygon>
<polygon opacity="0.29" points="64,32 32,48 32,16 "></polygon>

</g></g><g id="i105" class="lvl-1" transform="translate(160,512)"><g><path d="M0,-32L0,-48L64,-16L64,0Z" fill="#3399CC"></path> <path d="M0,-32L0,-48L64,-16L64,0Z" opacity="0.11"></path> <path d="M64,-16L64,0L96,-16L96,-32Z" fill="#3399CC"></path> <path d="M64,-16L64,0L96,-16L96,-32Z" opacity="0.29"></path> <path d="M0,-48L64,-16L96,-32L32,-64Z" fill="#3399CC"></path> </g></g><g id="i110" class="lvl-1" transform="translate(192,448)"><g>
<polygon fill="#3399CC" points="0,32 32,48 64,32 64,0 "></polygon>
<polygon opacity="0.11" points="32,16 32,48 0,32 "></polygon>
<polygon opacity="0.29" points="64,0 64,32 32,48 32,16 "></polygon>

</g></g><g id="i108" class="lvl-1" transform="translate(128,464)"><g>
<polygon fill="#FCCC84" points="32,0 0,48 32,64 64,48 64,16 "></polygon>
<polygon opacity="0.11" points="32,0 64,16 32,64 0,48 "></polygon>
<polygon opacity="0.29" points="64,16 64,48 32,64 "></polygon>

</g></g><g id="i102" class="lvl-1" transform="translate(160,576)"><g><path d="M0,-16L0,-272L32,-256L32,0Z" fill="#F8EBCB"></path> <path d="M0,-16L0,-272L32,-256L32,0Z" opacity="0.11"></path> <path d="M32,-256L32,0L64,-16L64,-272Z" fill="#F8EBCB"></path> <path d="M32,-256L32,0L64,-16L64,-272Z" opacity="0.29"></path> <path d="M0,-272L32,-256L64,-272L32,-288Z" fill="#F8EBCB"></path> </g></g><g id="i111" class="lvl-1" transform="translate(192,384)"><g><path d="M0,-16L0,-32L32,-16L32,0Z" fill="#FCCC84"></path> <path d="M0,-16L0,-32L32,-16L32,0Z" opacity="0.11"></path> <path d="M32,-16L32,0L96,-32L96,-48Z" fill="#FCCC84"></path> <path d="M32,-16L32,0L96,-32L96,-48Z" opacity="0.29"></path> <path d="M0,-32L32,-16L96,-48L64,-64Z" fill="#FCCC84"></path> </g></g><g id="i119" class="lvl-1" transform="translate(192,512)"><g><path d="M0,-16L0,-32L32,-16L32,0Z" fill="#FCCC84"></path> <path d="M0,-16L0,-32L32,-16L32,0Z" opacity="0.11"></path> <path d="M32,-16L32,0L96,-32L96,-48Z" fill="#FCCC84"></path> <path d="M32,-16L32,0L96,-32L96,-48Z" opacity="0.29"></path> <path d="M0,-32L32,-16L96,-48L64,-64Z" fill="#FCCC84"></path> </g></g><g id="i120" class="lvl-1" transform="translate(192,448)"><g>
<polygon fill="#FCCC84" points="0,0 0,32 32,48 64,32 "></polygon>
<polygon opacity="0.11" points="0,0 32,16 32,48 0,32 "></polygon>
<polygon opacity="0.29" points="64,32 32,48 32,16 "></polygon>

</g></g><g id="i121" class="lvl-1" transform="translate(128,496)"><g><path d="M0,-32L0,-48L64,-16L64,0Z" fill="#FCCC84"></path> <path d="M0,-32L0,-48L64,-16L64,0Z" opacity="0.11"></path> <path d="M64,-16L64,0L96,-16L96,-32Z" fill="#FCCC84"></path> <path d="M64,-16L64,0L96,-16L96,-32Z" opacity="0.29"></path> <path d="M0,-48L64,-16L96,-32L32,-64Z" fill="#FCCC84"></path> </g></g><g id="i124" class="lvl-1" transform="translate(128,528)"><g>
<polygon fill="#FCCC84" points="32,0 0,16 0,48 32,64 64,48 "></polygon>
<polygon opacity="0.11" points="0,16 32,64 0,48 "></polygon>
<polygon opacity="0.29" points="32,0 64,48 32,64 0,16 "></polygon>

</g></g><g id="i125" class="lvl-1" transform="translate(192,320)"><g>
<polygon fill="#FCCC84" points="0,0 0,32 32,48 64,32 "></polygon>
<polygon opacity="0.11" points="0,0 32,16 32,48 0,32 "></polygon>
<polygon opacity="0.29" points="64,32 32,48 32,16 "></polygon>

</g></g><g id="i126" class="lvl-1" transform="translate(128,384)"><g><path d="M0,-32L0,-64L64,-32L64,0Z" fill="#FCCC84"></path> <path d="M0,-32L0,-64L64,-32L64,0Z" opacity="0.11"></path> <path d="M64,-32L64,0L96,-16L96,-48Z" fill="#FCCC84"></path> <path d="M64,-32L64,0L96,-16L96,-48Z" opacity="0.29"></path> <path d="M0,-64L64,-32L96,-48L32,-80Z" fill="#FCCC84"></path> </g></g><g id="i129" class="lvl-1" transform="translate(128,400)"><g>
<polygon fill="#FCCC84" points="32,0 0,16 0,48 32,64 64,48 "></polygon>
<polygon opacity="0.11" points="0,16 32,64 0,48 "></polygon>
<polygon opacity="0.29" points="32,0 64,48 32,64 0,16 "></polygon>

</g></g><g id="i103" class="lvl-1" transform="translate(160,256)"><g>
<polygon fill="#F8EBCB" points="32,0 0,48 32,64 64,48 64,16 "></polygon>
<polygon opacity="0.11" points="32,0 64,16 32,64 0,48 "></polygon>
<polygon opacity="0.29" points="64,16 64,48 32,64 "></polygon>

</g></g><g id="i13" class="lvl-1" transform="translate(88,840)"><g><path d="m9 76.5 15-7.5 30 15-15 7.5z" opacity=".2"></path><path d="m9 51.3v25.2l15-7.5v-25.3c0-2.4.8-4.5 2.2-6.3-5.7.1-17.2 4.4-17.2 13.9z" fill="#f8ebcb"></path><path d="m9 51.3v25.2l15-7.5v-25.3c0-2.4.8-4.5 2.2-6.3-5.7.1-17.2 4.4-17.2 13.9z" opacity=".29"></path><path d="m16 8-16 8v56l8 4v-24.7c0-8.4 8.8-13.8 16.3-10.1 9.6 4.8 15.7 14.6 15.7 25.4v25.4l8 4 16-8v-56z" fill="#baa794"></path><g fill="#999"><path d="m64 85-2 1v2l2-1z"></path><path d="m50 94 3-1.5v-2l-3 1.5z"></path><path d="m49 92.5-1 .5v2l1-.5z"></path><path d="m55 86.5-3 1.5v2l3-1.5z"></path><path d="m51 88.5-3 1.5v2l3-1.5z"></path><path d="m62 82 2-1v-2l-2 1z"></path><path d="m50 88 3-1.5v-2l-3 1.5z"></path><path d="m49 86.5-1 .5v2l1-.5z"></path><path d="m55 80.5-3 1.5v2l3-1.5z"></path><path d="m51 82.5-3 1.5v2l3-1.5z"></path><path d="m47 92.5 1 .5v2l-1-.5z"></path><path d="m47 86.5 1 .5v2l-1-.5z"></path><path d="m64 73-2 1v2l2-1z"></path><path d="m50 82 3-1.5v-2l-3 1.5z"></path><path d="m49 80.5-1 .5v2l1-.5z"></path><path d="m55 74.5-3 1.5v2l3-1.5z"></path><path d="m51 76.5-3 1.5v2l3-1.5z"></path><path d="m62 70 2-1v-2l-2 1z"></path><path d="m50 76 3-1.5v-2l-3 1.5z"></path><path d="m49 74.5-1 .5v2l1-.5z"></path><path d="m55 68.5-3 1.5v2l3-1.5z"></path><path d="m51 70.5-3 1.5v2l3-1.5z"></path><path d="m47 80.5 1 .5v2l-1-.5z"></path><path d="m47 74.5 1 .5v2l-1-.5z"></path><path d="m64 61-2 1v2l2-1z"></path><path d="m50 70 3-1.5v-2l-3 1.5z"></path><path d="m49 68.5-1 .5v2l1-.5z"></path><path d="m55 62.5-3 1.5v2l3-1.5z"></path><path d="m51 64.5-3 1.5v2l3-1.5z"></path><path d="m62 58 2-1v-2l-2 1z"></path><path d="m50 64 3-1.5v-2l-3 1.5z"></path><path d="m49 62.5-1 .5v2l1-.5z"></path><path d="m55 56.5-3 1.5v2l3-1.5z"></path><path d="m51 58.5-3 1.5v2l3-1.5z"></path><path d="m47 68.5 1 .5v2l-1-.5z"></path><path d="m47 62.5 1 .5v2l-1-.5z"></path><path d="m64 49-2 1v2l2-1z"></path><path d="m50 58 3-1.5v-2l-3 1.5z"></path><path d="m49 56.5-1 .5v2l1-.5z"></path><path d="m55 50.5-3 1.5v2l3-1.5z"></path><path d="m51 52.5-3 1.5v2l3-1.5z"></path><path d="m62 46 2-1v-2l-2 1z"></path><path d="m50 52 3-1.5v-2l-3 1.5z"></path><path d="m49 50.5-1 .5v2l1-.5z"></path><path d="m55 44.5-3 1.5v2l3-1.5z"></path><path d="m51 46.5-3 1.5v2l3-1.5z"></path><path d="m47 56.5 1 .5v2l-1-.5z"></path><path d="m47 50.5 1 .5v2l-1-.5z"></path><path d="m64 37-2 1v2l2-1z"></path><path d="m50 46 3-1.5v-2l-3 1.5z"></path><path d="m49 44.5-1 .5v2l1-.5z"></path><path d="m55 38.5-3 1.5v2l3-1.5z"></path><path d="m54 92 3-1.5v-2l-3 1.5z"></path><path d="m59 84.5-3 1.5v2l3-1.5z"></path><path d="m54 86 3-1.5v-2l-3 1.5z"></path><path d="m59 78.5-3 1.5v2l3-1.5z"></path><path d="m54 80 3-1.5v-2l-3 1.5z"></path><path d="m59 72.5-3 1.5v2l3-1.5z"></path><path d="m54 74 3-1.5v-2l-3 1.5z"></path><path d="m59 66.5-3 1.5v2l3-1.5z"></path><path d="m54 68 3-1.5v-2l-3 1.5z"></path><path d="m59 60.5-3 1.5v2l3-1.5z"></path><path d="m54 62 3-1.5v-2l-3 1.5z"></path><path d="m59 54.5-3 1.5v2l3-1.5z"></path><path d="m54 56 3-1.5v-2l-3 1.5z"></path><path d="m59 48.5-3 1.5v2l3-1.5z"></path><path d="m54 50 3-1.5v-2l-3 1.5z"></path><path d="m59 42.5-3 1.5v2l3-1.5z"></path><path d="m54 44 3-1.5v-2l-3 1.5z"></path><path d="m59 36.5-3 1.5v2l3-1.5z"></path><path d="m58 90 3-1.5v-2l-3 1.5z"></path><path d="m63 82.5-3 1.5v2l3-1.5z"></path><path d="m58 84 3-1.5v-2l-3 1.5z"></path><path d="m63 76.5-3 1.5v2l3-1.5z"></path><path d="m58 78 3-1.5v-2l-3 1.5z"></path><path d="m63 70.5-3 1.5v2l3-1.5z"></path><path d="m58 72 3-1.5v-2l-3 1.5z"></path><path d="m63 64.5-3 1.5v2l3-1.5z"></path><path d="m58 66 3-1.5v-2l-3 1.5z"></path><path d="m63 58.5-3 1.5v2l3-1.5z"></path><path d="m58 60 3-1.5v-2l-3 1.5z"></path><path d="m63 52.5-3 1.5v2l3-1.5z"></path><path d="m58 54 3-1.5v-2l-3 1.5z"></path><path d="m63 46.5-3 1.5v2l3-1.5z"></path><path d="m58 48 3-1.5v-2l-3 1.5z"></path><path d="m63 40.5-3 1.5v2l3-1.5z"></path><path d="m58 42 3-1.5v-2l-3 1.5z"></path><path d="m63 34.5-3 1.5v2l3-1.5z"></path><path d="m51 40.5-3 1.5v2l3-1.5z"></path><path d="m47 44.5 1 .5v2l-1-.5z"></path><path d="m0 69 2 1v2l-2-1z"></path><path d="m39 88.5 3 1.5v2l-3-1.5z"></path><path d="m46 94-3-1.5v-2l3 1.5z"></path><path d="m41 86.5 3 1.5v2l-3-1.5z"></path><path d="m45 88.5 3 1.5v2l-3-1.5z"></path><path d="m0 63 2 1v2l-2-1z"></path><path d="m42 86-3-1.5v-2l3 1.5z"></path><path d="m46 88-3-1.5v-2l3 1.5z"></path><path d="m41 80.5 3 1.5v2l-3-1.5z"></path><path d="m45 82.5 3 1.5v2l-3-1.5z"></path><path d="m0 57 2 1v2l-2-1z"></path><path d="m39 76.5 3 1.5v2l-3-1.5z"></path><path d="m46 82-3-1.5v-2l3 1.5z"></path><path d="m41 74.5 3 1.5v2l-3-1.5z"></path><path d="m45 76.5 3 1.5v2l-3-1.5z"></path><path d="m0 51 2 1v2l-2-1z"></path><path d="m42 74-3-1.5v-2l3 1.5z"></path><path d="m46 76-3-1.5v-2l3 1.5z"></path><path d="m41 68.5 3 1.5v2l-3-1.5z"></path><path d="m45 70.5 3 1.5v2l-3-1.5z"></path><path d="m0 45 2 1v2l-2-1z"></path><path d="m39 64.5 3 1.5v2l-3-1.5z"></path><path d="m46 70-3-1.5v-2l3 1.5z"></path><path d="m41 62.5 3 1.5v2l-3-1.5z"></path><path d="m45 64.5 3 1.5v2l-3-1.5z"></path><path d="m0 39 2 1v2l-2-1z"></path><path d="m42 62-3-1.5v-2l3 1.5z"></path><path d="m46 64-3-1.5v-2l3 1.5z"></path><path d="m37 54.5 3 1.5v2l-2.5-1.2z"></path><path d="m41 56.5 3 1.5v2l-3-1.5z"></path><path d="m45 58.5 3 1.5v2l-3-1.5z"></path><path d="m0 33 2 1v2l-2-1z"></path><path d="m35 50.5 3 1.5v2l-2.5-1.2z"></path><path d="m39 52.5 3 1.5v2l-3-1.5z"></path><path d="m46 58-3-1.5v-2l3 1.5z"></path><path d="m17 38.5 3 1.5-3 .5z"></path><path d="m33 46.5 3 1.5v2l-3-1.5z"></path><path d="m37 48.5 3 1.5v2l-3-1.5z"></path><path d="m41 50.5 3 1.5v2l-3-1.5z"></path><path d="m45 52.5 3 1.5v2l-3-1.5z"></path><path d="m0 27 2 1v2l-2-1z"></path><path d="m19 36.5 3 1.5v2l-3-1.5z"></path><path d="m23 38.5 3 1.5v2l-3-1.5z"></path><path d="m27 40.5 3 1.5v2l-3-1.5z"></path><path d="m31 42.5 3 1.5v2l-3-1.5z"></path><path d="m35 44.5 3 1.5v2l-3-1.5z"></path><path d="m42 50-3-1.5v-2l3 1.5z"></path><path d="m46 52-3-1.5v-2l3 1.5z"></path><path d="m17 32.5 3 1.5v2l-3-1.5z"></path><path d="m21 34.5 3 1.5v2l-3-1.5z"></path><path d="m25 36.5 3 1.5v2l-3-1.5z"></path><path d="m29 38.5 3 1.5v2l-3-1.5z"></path><path d="m33 40.5 3 1.5v2l-3-1.5z"></path><path d="m37 42.5 3 1.5v2l-3-1.5z"></path><path d="m41 44.5 3 1.5v2l-3-1.5z"></path><path d="m45 46.5 3 1.5v2l-3-1.5z"></path><path d="m0 21 2 1v2l-2-1z"></path><path d="m19 30.5 3 1.5v2l-3-1.5z"></path><path d="m23 32.5 3 1.5v2l-3-1.5z"></path><path d="m27 34.5 3 1.5v2l-3-1.5z"></path><path d="m31 36.5 3 1.5v2l-3-1.5z"></path><path d="m35 38.5 3 1.5v2l-3-1.5z"></path><path d="m39 40.5 3 1.5v2l-3-1.5z"></path><path d="m46 46-3-1.5v-2l3 1.5z"></path><path d="m17 26.5 3 1.5v2l-3-1.5z"></path><path d="m21 28.5 3 1.5v2l-3-1.5z"></path><path d="m25 30.5 3 1.5v2l-3-1.5z"></path><path d="m29 32.5 3 1.5v2l-3-1.5z"></path><path d="m33 34.5 3 1.5v2l-3-1.5z"></path><path d="m37 36.5 3 1.5v2l-3-1.5z"></path><path d="m41 38.5 3 1.5v2l-3-1.5z"></path><path d="m45 40.5 3 1.5v2l-3-1.5z"></path><path d="m9 40.5 3 1.5v2l-3-1.5z"></path><path d="m11 38.5 3 1.5v2l-3-1.5z"></path><path d="m9 34.5 3 1.5v2l-3-1.5z"></path><path d="m13 36.5 3 1.5v2l-3-1.5z"></path><path d="m11 32.5 3 1.5v2l-3-1.5z"></path><path d="m15 34.5 3 1.5v2l-3-1.5z"></path><path d="m9 28.5 3 1.5v2l-3-1.5z"></path><path d="m13 30.5 3 1.5v2l-3-1.5z"></path><path d="m11 26.5 3 1.5v2l-3-1.5z"></path><path d="m15 28.5 3 1.5v2l-3-1.5z"></path><path d="m9 22.5 3 1.5v2l-3-1.5z"></path><path d="m13 24.5 3 1.5v2l-3-1.5z"></path><path d="m3 70.5 3 1.5v2l-3-1.5z"></path><path d="m7 72.5 1 .5v2l-1-.5z"></path><path d="m1 66.5 3 1.5v2l-3-1.5z"></path><path d="m5 68.5 3 1.5v2l-3-1.5z"></path><path d="m3 64.5 3 1.5v2l-3-1.5z"></path><path d="m7 66.5 1 .5v2l-1-.5z"></path><path d="m1 60.5 3 1.5v2l-3-1.5z"></path><path d="m5 62.5 3 1.5v2l-3-1.5z"></path><path d="m3 58.5 3 1.5v2l-3-1.5z"></path><path d="m7 60.5 1 .5v2l-1-.5z"></path><path d="m1 54.5 3 1.5v2l-3-1.5z"></path><path d="m5 56.5 3 1.5v2l-3-1.5z"></path><path d="m3 52.5 3 1.5v2l-3-1.5z"></path><path d="m7 54.5 1 .5v2l-1-.5z"></path><path d="m1 48.5 3 1.5v2l-3-1.5z"></path><path d="m5 50.5 3 1.5v2l-3-1.5z"></path><path d="m3 46.5 3 1.5v2l-3-1.5z"></path><path d="m7 48.5 1 .5v2l-1-.5z"></path><path d="m1 42.5 3 1.5v2l-3-1.5z"></path><path d="m5 44.5 3 1.5v2l-3-1.5z"></path><path d="m3 40.5 3 1.5v2l-3-1.5z"></path><path d="m7 42.5 3 1.5v2l-3-1.5z"></path><path d="m1 36.5 3 1.5v2l-3-1.5z"></path><path d="m5 38.5 3 1.5v2l-3-1.5z"></path><path d="m3 34.5 3 1.5v2l-3-1.5z"></path><path d="m7 36.5 3 1.5v2l-3-1.5z"></path><path d="m1 30.5 3 1.5v2l-3-1.5z"></path><path d="m5 32.5 3 1.5v2l-3-1.5z"></path><path d="m3 28.5 3 1.5v2l-3-1.5z"></path><path d="m7 30.5 3 1.5v2l-3-1.5z"></path><path d="m1 24.5 3 1.5v2l-3-1.5z"></path><path d="m5 26.5 3 1.5v2l-3-1.5z"></path><path d="m3 22.5 3 1.5v2l-3-1.5z"></path><path d="m7 24.5 3 1.5v2l-3-1.5z"></path><path d="m1 18.5 3 1.5v2l-3-1.5z"></path><path d="m5 20.5 3 1.5v2l-3-1.5z"></path></g><path d="m64 32-16 8v56l16-8z" opacity=".29"></path><path d="m24.3 41.2c-7.5-3.7-16.3 1.7-16.3 10.1v24.8l1 .5v-25.3c0-5.7 4.6-10.3 10.3-10.3 1.6 0 3.1.4 4.6 1.1 9.3 4.7 15.1 14.1 15.1 24.5v25l1 .5v-25.5c0-10.8-6.1-20.6-15.7-25.4z" fill="#f8ebcb"></path><path d="m0 16v56l9 4.5v-25.2c0-5.7 4.6-10.3 10.3-10.3 1.6 0 3.1.4 4.6 1.1 9.3 4.7 15.1 14.1 15.1 24.5v24.9l9 4.5v-56z" opacity=".11"></path><path d="m44 32 4 2v4l-2 1-4-2v-4z" fill="#baa794"></path><path d="m48 34-2 1v4l2-1z" opacity=".29"></path><path d="m42 33v4l4 2v-4z" opacity=".11"></path><path d="m58 25 4 2v4l-2 1-4-2v-4z" fill="#baa794"></path><path d="m62 27-2 1v4l2-1z" opacity=".29"></path><path d="m56 26v4l4 2v-4z" opacity=".11"></path><path d="m36 28 4 2v4l-2 1-4-2v-4z" fill="#baa794"></path><path d="m40 30-2 1v4l2-1z" opacity=".29"></path><path d="m34 29v4l4 2v-4z" opacity=".11"></path><path d="m50 21 4 2v4l-2 1-4-2v-4z" fill="#baa794"></path><path d="m54 23-2 1v4l2-1z" opacity=".29"></path><path d="m48 22v4l4 2v-4z" opacity=".11"></path><path d="m28 24 4 2v4l-2 1-4-2v-4z" fill="#baa794"></path><path d="m32 26-2 1v4l2-1z" opacity=".29"></path><path d="m26 25v4l4 2v-4z" opacity=".11"></path><path d="m42 17 4 2v4l-2 1-4-2v-4z" fill="#baa794"></path><path d="m46 19-2 1v4l2-1z" opacity=".29"></path><path d="m40 18v4l4 2v-4z" opacity=".11"></path><path d="m20 20 4 2v4l-2 1-4-2v-4z" fill="#baa794"></path><path d="m24 22-2 1v4l2-1z" opacity=".29"></path><path d="m18 21v4l4 2v-4z" opacity=".11"></path><path d="m34 13 4 2v4l-2 1-4-2v-4z" fill="#baa794"></path><path d="m38 15-2 1v4l2-1z" opacity=".29"></path><path d="m32 14v4l4 2v-4z" opacity=".11"></path><path d="m12 16 4 2v4l-2 1-4-2v-4z" fill="#baa794"></path><path d="m16 18-2 1v4l2-1z" opacity=".29"></path><path d="m10 17v4l4 2v-4z" opacity=".11"></path><path d="m26 9 4 2v4l-2 1-4-2v-4z" fill="#baa794"></path><path d="m30 11-2 1v4l2-1z" opacity=".29"></path><path d="m24 10v4l4 2v-4z" opacity=".11"></path><path d="m4 12 4 2v4l-2 1-4-2v-4z" fill="#baa794"></path><path d="m8 14-2 1v4l2-1z" opacity=".29"></path><path d="m2 13v4l4 2v-4z" opacity=".11"></path><path d="m18 5 4 2v4l-2 1-4-2v-4z" fill="#baa794"></path><path d="m22 7-2 1v4l2-1z" opacity=".29"></path><path d="m16 6v4l4 2v-4z" opacity=".11"></path>
</g></g><g id="i64" class="lvl-1" transform="translate(100,884)"><g><path d="m30 16-8-4v2h-6v4h6v2zm-8 12h-8v-24h8v6h2v-8h-10v-2l-10 2v28l10 2v-2h10v-8h-2z" fill="#2d3134"></path>
</g></g></g><g id="chart-grid-container-front" style="pointer-events:none;mix-blend-mode:multiply"><g id="chart-grid-cell-front"><rect x="0" y="0" width="8000" height="8000" fill="url(#grid8L)"></rect></g><g id="chart-grid-dotted-front"><rect x="0" y="0" width="8000" height="8000" fill="url(#grid8F)"></rect></g></g><g id="chart-foreground-container"><rect id="chart-foreground-rect" width="8000" height="8000" fill="none" stroke-width="1px" stroke="rgb(64, 64, 64)" stroke-opacity="0.7"></rect></g><g id="selection-layer"></g><g id="align-lines-layer" clip-path="url(#svg-align-lines-clip)"></g><g id="global-selection-layer"></g><a href="/pricing" target="_blank" title="Upgrade to remove watermark"><g transform="translate(6400,7648)scale(8)"><g><path d="m65 30.6v-19.2l19-9.5 11.2 5.6-19.2 9.6v7.8l8 4 6.8-3.4-9-4.5 11.2-5.6 10 5v10.2l-19 9.5z" fill="#fff" opacity=".7"></path><path d="m174.9 9.9-3.5-4.3h-3.1v8.8l-5.3-8.7h-3l-4.9 8.2-1.8-1.4c.9-.4 1.6-1.3 1.6-2.3v-2c0-1.4-1.1-2.5-2.5-2.5h-8.8v10.2h4v-3.1h.5l3.4 3.1h6.8l1-1.8h4.2l1 1.8h7.4v-3.7l2.2 2.7h1.3l2.2-2.7v3.7h3.8v-10.2h-3.1zm-24-.7h-3.4v-.1zm43.1-1c0-1.4-1.1-2.5-2.5-2.5h-6.4c-1.4 0-2.5 1.1-2.5 2.5v1.7c0 .8.4 1.5.9 2l-1.3.7v.7c0 1.4 1.1 2.5 2.5 2.5h6.7c1.4 0 2.5-1.1 2.5-2.5v-1.8c0-.8-.4-1.6-1.1-2.1l1.1-.5v-.7zm-95.5 7.6h4v-10.1h-4zm27.8-10.2h-7.5c-1.4 0-2.5 1.1-2.5 2.5v5.1c0 1.4 1.1 2.5 2.5 2.5h7.5c1.4 0 2.5-1.1 2.5-2.5v-5c0-1.4-1.1-2.6-2.5-2.6zm-1.4 6.7h-4.6v-3.2h4.6zm14.7-6.7h-7c-1.4 0-2.5 1.1-2.5 2.5v5.1c0 1.4 1.1 2.5 2.5 2.5h7c1.4 0 2.5-1.1 2.5-2.5v-4h-.3l.3-.2v-.8c0-1.4-1.1-2.6-2.5-2.6zm-1.4 3.6h-3.2v3.2h-1v-3.3zm-25.6-3.6h-6.2c-1.4 0-2.5 1.1-2.5 2.5v5.1c0 1.4 1.1 2.5 2.5 2.5h6.2c1.4 0 2.5-1.1 2.5-2.5v-1.2l-2.7-1.3 2.7-1.3v-1.2c.1-1.4-1.1-2.6-2.5-2.6zm-1.4 6.7h-3.4v-3.2h3.4z" fill="#fff" opacity=".6"></path><path d="m93 16.5 9 4.5-9 4.5-9-4.5z" fill="#cc291f"></path><path d="m84 3-18 9 9 4.5 18-9z" fill="#39c"></path><path d="m84 30v9l18-9v-9z" fill="#fc0"></path><path d="m75 25.5v-9l-9-4.5v18l18 9v-9z" fill="#9c3"></path><path d="m169.3 14.8v-8.1h1.6l4 4.8 4-4.8h1.6v8.1h-1.8v-5.6l-3.6 4.6h-.4l-3.7-4.5v5.5z" fill="#242729"></path><path d="m193 8.3v-.1c0-.9-.7-1.5-1.5-1.5h-6.4c-.9 0-1.5.7-1.5 1.5v1.7c0 .9.7 1.5 1.5 1.5h5.9v1.9h-5.9v-1.2l-2 1v.1c0 .9.7 1.5 1.5 1.5h6.7c.9 0 1.5-.7 1.5-1.5v-1.8c0-.9-.7-1.5-1.5-1.5h-5.9v-1.8h5.5v1.2z" fill="#242729"></path><path d="m99.5 14.8v-8.1h2v8.1z" fill="#242729"></path><path d="m155.7 14.8 4.8-8.1h1.9l4.9 8.1h-2.2l-1-1.8h-5.4l-1 1.8zm3.8-3.3h3.7l-1.9-3.4z" fill="#242729"></path><path d="m117.3 8.2v5.1c0 .9.7 1.5 1.5 1.5h7.5c.9 0 1.5-.7 1.5-1.5v-5.1c0-.9-.7-1.5-1.5-1.5h-7.5c-.8-.1-1.5.6-1.5 1.5zm8.6 5.1h-6.6v-5.2h6.6z" fill="#242729"></path><path d="m141.1 8.4v-.2c0-.9-.7-1.5-1.5-1.5h-7c-.9 0-1.5.7-1.5 1.5v5.1c0 .9.7 1.5 1.5 1.5h7c.9 0 1.5-.7 1.5-1.5v-3.1h-5.2v1.5h3.2v1.7h-6.1v-5.3h6.2v1.2z" fill="#242729"></path><path d="m112.2 11.7v1.6h-5.4v-5.2h5.4v1.6l2-.9v-.6c0-.9-.7-1.5-1.5-1.5h-6.2c-.9 0-1.5.7-1.5 1.5v5.1c0 .9.7 1.5 1.5 1.5h6.2c.9 0 1.5-.7 1.5-1.5v-.6z" fill="#242729"></path><path d="m150.7 11.7h1.6c.9 0 1.5-.7 1.5-1.5v-2c0-.9-.7-1.5-1.5-1.5h-7.8v8.2h2v-3.1h1.9l3.4 3.1h2.8zm-4.2-1.5v-2.1h5.4v2.1z" fill="#242729"></path><path d="m42.8 22.7c-.2-.1-.5-.1-.7-.1-.7 0-1.4.2-1.9.6-.5.3-.9.8-1.2 1.3-.1-.3-.3-.5-.5-.7-.7-.8-1.7-1.2-2.8-1.2-1 0-1.9.3-2.6 1v-.8h-1.1v-2.9l-3 1.8v1.1h-.8v.6c-.2-.2-.5-.3-.8-.5-.5-.2-1-.3-1.6-.3s-1.2.1-1.8.3-1 .5-1.4.9c-.1.2-.3.4-.4.6-.1-.2-.3-.5-.5-.7-.7-.8-1.7-1.2-2.8-1.2-.9 0-1.6.2-2.3.7l-.4-.2c-.5-.3-1.1-.5-1.6-.5-.3 0-.5 0-.8.1h-2.2c-.3-.7-.8-1.2-1.3-1.7-.8-.6-1.7-.9-2.8-.9-.9 0-1.8.2-2.6.6s-1.4 1.1-1.9 1.9c-.4.8-.6 1.7-.6 2.8 0 1 .2 1.9.5 2.7.4.9 1 1.6 1.7 2.1s1.7.7 2.8.7 2.1-.3 2.9-1c.4-.3.7-.6.9-1v2.2h3.1v-4.3c0-.3 0-.7.1-.9l-1-.3 1 .2c.1 0 .2 0 .3.1l.2.1c-.1.3-.1.6-.1 1 0 1.3.4 2.3 1.1 3 .7.8 1.7 1.2 2.9 1.2.9 0 1.7-.2 2.4-.7.3-.2.5-.4.7-.7.1.2.3.5.5.7.6.5 1.3.8 2.2.8.5 0 1-.1 1.5-.3.1 0 .2-.1.2-.1l.1.2h3.4l-.1-.2c.4.2.8.3 1.4.3.3 0 .6 0 1-.1l.9-.2-.1-.4c.7.5 1.5.7 2.4.7s1.7-.2 2.4-.7c.4-.3.7-.7.9-1.1.3.5.7.9 1.1 1.2.6.4 1.2.6 1.9.6.3 0 .7 0 1-.1h2.7v-10.6h-3v2.3zm-31.4 3.6-2.1-.5-.2 1c-.1.5-.3.9-.6 1.1s-.6.3-1 .3c-.3 0-.7-.1-.9-.3-.3-.2-.4-.4-.6-.7-.2-.4-.3-.9-.3-1.5 0-.5.1-.9.2-1.3.1-.3.3-.6.6-.8s.6-.3 1.1-.3c.4 0 .6.1.8.2.2.2.4.5.5.9l.3.9 2.2-.5zm31.2 1.8c-.2.2-.3.2-.4.2s-.2 0-.4-.2-.3-.6-.3-1.1c0-.8.2-1.1.2-1.2.1-.2.3-.2.4-.2s.3 0 .4.2c.1.1.3.4.3 1.2.1.7-.1 1-.2 1.1zm15.9-3.2c-.1-.4-.3-.8-.5-1.2-.3-.4-.6-.7-1.1-.9-.4-.2-.9-.3-1.4-.3-.4 0-.7 0-1 .1h-2.5v-2.4h-3.1v10.8h5.7v-4.4c0-.7.1-.9.1-.9.1-.1.3-.2.5-.2.1 0 .2 0 .2.1 0 0 .1.2.1.6v4.8h3.1v-4.8c-.1-.6-.1-1-.1-1.3z" fill="#fff" opacity=".5"></path><g fill="#242729"><path d="m10.1 27 1.1.3c-.2.9-.7 1.6-1.3 2.1s-1.4.7-2.3.7-1.7-.2-2.3-.6-1-.9-1.3-1.6-.5-1.5-.5-2.3c0-.9.2-1.7.5-2.3s.8-1.2 1.5-1.5 1.3-.5 2.1-.5c.9 0 1.6.2 2.2.7s1 1.1 1.2 1.8l-1.1.2c-.2-.6-.5-1.1-.9-1.4s-.9-.4-1.4-.4c-.7 0-1.2.2-1.7.5s-.7.8-.9 1.3-.3 1.1-.3 1.6c0 .7.1 1.4.3 1.9s.5 1 1 1.2.9.4 1.5.4 1.2-.2 1.6-.6.8-.8 1-1.5z"></path><path d="m12.4 30v-6.2h.9v.9c.2-.4.5-.7.7-.9s.4-.2.7-.2c.4 0 .7.1 1.1.3l-.4 1c-.3-.2-.5-.2-.8-.2-.2 0-.4.1-.6.2s-.3.3-.4.6c-.1.4-.2.8-.2 1.2v3.3z"></path><path d="m20.7 28 1.1.1c-.2.6-.5 1.1-1 1.5s-1.1.5-1.8.5c-.9 0-1.6-.3-2.2-.8s-.8-1.3-.8-2.4c0-1 .3-1.9.8-2.4s1.2-.9 2.1-.9c.8 0 1.5.3 2 .8s.8 1.4.8 2.4v.3h-4.6c0 .7.2 1.2.6 1.6s.8.5 1.3.5c.4 0 .7-.1 1-.3s.6-.5.7-.9zm-3.4-1.7h3.5c0-.5-.2-.9-.4-1.2-.3-.4-.8-.6-1.3-.6s-.9.2-1.2.5-.6.7-.6 1.3z"></path><path d="m27.2 29.2c-.4.3-.8.6-1.1.7s-.7.2-1.2.2c-.7 0-1.2-.2-1.6-.5s-.6-.8-.6-1.3c0-.3.1-.6.2-.8s.3-.5.5-.6.5-.3.8-.3c.2-.1.5-.1.9-.2.9-.1 1.5-.2 1.9-.4 0-.1 0-.2 0-.3 0-.4-.1-.7-.3-.9-.3-.2-.7-.4-1.2-.4s-.9.1-1.1.3-.4.5-.5.9l-1-.1c.1-.4.2-.8.5-1.1s.5-.5.9-.6.9-.2 1.4-.2 1 .1 1.3.2.6.3.7.5.3.4.3.7c0 .2.1.5.1 1v1.4c0 1 0 1.6.1 1.9s.1.5.3.7h-1.1c-.1-.2-.2-.5-.2-.8zm-.1-2.3c-.4.2-1 .3-1.7.4-.4.1-.7.1-.9.2s-.3.2-.4.3-.1.3-.1.5c0 .3.1.5.3.7s.5.3.9.3.8-.1 1.1-.3.5-.4.7-.7c.1-.2.2-.6.2-1.1v-.3z"></path><path d="m32.1 29.1.2.9c-.3.1-.6.1-.8.1-.4 0-.7-.1-.9-.2s-.4-.3-.4-.5-.2-.6-.2-1.2v-3.6h-.8v-.8h.8v-1.5l1-.6v2.2h1.1v.8h-1.1v3.6c0 .3 0 .5.1.6s.1.2.2.2.2.1.4.1c.1-.1.2-.1.4-.1z"></path><path d="m37.4 28 1.1.1c-.2.6-.5 1.1-1 1.5s-1.1.5-1.8.5c-.9 0-1.6-.3-2.2-.8s-.8-1.3-.8-2.4c0-1 .3-1.9.8-2.4s1.2-.9 2.1-.9c.8 0 1.5.3 2 .8s.8 1.4.8 2.4v.3h-4.6c0 .7.2 1.2.6 1.6s.8.5 1.3.5c.4 0 .7-.1 1-.3s.5-.5.7-.9zm-3.5-1.7h3.5c0-.5-.2-.9-.4-1.2-.3-.4-.8-.6-1.3-.6s-.9.2-1.2.5-.5.7-.6 1.3z"></path><path d="m43.8 30v-.8c-.4.6-1 .9-1.7.9-.5 0-1-.1-1.4-.4s-.7-.7-1-1.1-.3-1.1-.3-1.7.1-1.2.3-1.7.5-.9.9-1.2.9-.4 1.4-.4c.4 0 .7.1 1 .2s.5.4.7.6v-3.1h1v8.7zm-3.3-3.1c0 .8.2 1.4.5 1.8s.7.6 1.2.6.9-.2 1.2-.6.5-1 .5-1.7c0-.9-.2-1.5-.5-1.9s-.7-.6-1.2-.6-.9.2-1.2.6-.5 1-.5 1.8z"></path><path d="m49.8 22.6v-1.2h1.1v1.2zm0 7.4v-6.2h1.1v6.2z"></path><path d="m52.5 30v-6.2h.9v.9c.5-.7 1.1-1 2-1 .4 0 .7.1 1 .2s.5.3.7.5.3.5.3.8c0 .2.1.5.1 1v3.8h-1.1v-3.8c0-.4 0-.8-.1-1s-.2-.4-.4-.5-.5-.2-.7-.2c-.4 0-.8.1-1.2.4s-.5.8-.5 1.6v3.5z"></path></g></g></g></a></g></svg>