<svg width="1360" height="1020" id="chart-svg" xmlns="http://www.w3.org/2000/svg" style="cursor: default;">
                <defs id="svg-defs-internal">
                    <clipPath id="svg-align-lines-clip">
                        <rect x="-16000" y="-16000" width="40000" height="40000" id="svg-align-lines-clip-rect"></rect>
                    </clipPath>
                    <filter id="svg-filter-DraggingFilter" filterUnits="objectBoundingBox" x="-10%" y="-10%" width="120%" height="120%">
                        <feColorMatrix type="luminanceToAlpha"> </feColorMatrix>
                    </filter>
                    <filter id="svg-filter-ResizingFilter" filterUnits="objectBoundingBox" x="-10%" y="-10%" width="120%" height="120%">
                        <feColorMatrix type="saturate" values="2"> </feColorMatrix>
                    </filter>
                    <filter id="svg-filter-NotSelected" filterUnits="objectBoundingBox" x="-10%" y="-10%" width="120%" height="120%">
                        <feComponentTransfer>
                            <feFuncA type="linear" slope="0.4"></feFuncA>
                        </feComponentTransfer>
                    </filter>

                    <symbol id="tb-resize" width="10" height="10" viewBox="0 0 10 10">
                        <rect x="1" y="1" width="8" height="8" style="stroke-width:1;stroke:black;fill:darkgrey;opacity:0.6;cursor:ne-resize"></rect>
                        <text x="1" y="9" font-size="x-small" style="pointer-events:none">🡗</text>
                        <text x="2" y="8" font-size="x-small" style="pointer-events:none">🡕</text>
                    </symbol>

                    <symbol id="tb-clone-RU" viewBox="-3 -3 26 26">
                        <rect x="-2" y="-2" width="24" height="24" style="stroke-width:2;stroke:#242729;fill:#6C7175;opacity:0.7"></rect>
                        <g fill="#fff"><path d="m8.1 10.2-4.5 4.5 1.7 1.7 4.5-4.5 3.2 3.1v-8h-8z"></path><path d="m17 20v-17h-17v17zm-16-16h15v15h-15z"></path><path d="m3 0v3h1v-2h15v15h-2v1h3v-17z"></path></g>
                    </symbol>
                    <symbol id="tb-clone-LU" viewBox="-3 -3 26 26">
                        <rect x="-2" y="-2" width="24" height="24" style="stroke-width:2;stroke:#242729;fill:#6C7175;opacity:0.7"></rect>
                        <g fill="#fff"><path d="m11.9 10.2 4.5 4.5-1.7 1.7-4.5-4.5-3.2 3.1v-8h8z"></path><path d="m20 20v-17h-17v17zm-1-1h-15v-15h15z"></path><path d="m17 0v3h-1v-2h-15v15h2v1h-3v-17z"></path></g>
                    </symbol>
                    <symbol id="tb-clone-RD" viewBox="-3 -3 26 26">
                        <rect x="-2" y="-2" width="24" height="24" style="stroke-width:2;stroke:#242729;fill:#6C7175;opacity:0.7"></rect>
                        <g fill="#fff"><path d="m11.1 12.8-4.5-4.5 1.7-1.7 4.5 4.5 3.2-3.1v8h-8z"></path><path d="m20 20v-17h-17v17zm-1-1h-15v-15h15z"></path><path d="m17 0v3h-1v-2h-15v15h2v1h-3v-17z"></path></g>
                    </symbol>
                    <symbol id="tb-clone-LD" viewBox="-3 -3 26 26">
                        <rect x="-2" y="-2" width="24" height="24" style="stroke-width:2;stroke:#242729;fill:#6C7175;opacity:0.7"></rect>
                        <g fill="#fff"><path d="m8.9 12.8 4.5-4.5-1.7-1.7-4.5 4.5-3.2-3.1v8h8z"></path><path d="m17 20v-17h-17v17zm-16-16h15v15h-15z"></path><path d="m3 0v3h1v-2h15v15h-2v1h3v-17z"></path></g>
                    </symbol>
                    <symbol id="tb-clone-U" viewBox="-3 -3 26 26">
                        <rect x="-2" y="-2" width="24" height="24" style="stroke-width:2;stroke:#242729;fill:#6C7175;opacity:0.7"></rect>
                        <g fill="#fff"><path d="m8 11v6h3v-6h4l-5.5-6-5.5 6z"></path><path d="m1 0v3 17h17v-16-1-3zm16 19h-15v-15h15zm-15-16v-2h15v2z"></path></g>
                    </symbol>
                    <symbol id="tb-clone-D" viewBox="-3 -3 26 26">
                        <rect x="-2" y="-2" width="24" height="24" style="stroke-width:2;stroke:#242729;fill:#6C7175;opacity:0.7"></rect>
                        <g fill="#fff"><path d="m11 9v-6h-3v6h-4l5.5 6 5.5-6z"></path><path d="m18 20v-3-17h-17v16 1 3zm-16-19h15v15h-15zm15 16v2h-15v-2z"></path></g>
                    </symbol>
                    <symbol id="tb-flip" viewBox="-3 -3 26 26">
                        <rect x="-2" y="-2" width="24" height="24" style="stroke-width:2;stroke:#242729;fill:#6C7175;opacity:0.7"></rect>
                        <g fill="#fff"><path d="m11 4v16l8-4v-16z"></path><path d="m1 0v16l8 4v-16zm7 18.4-6-3v-13.8l6 3z"></path></g>
                    </symbol>
                    <symbol id="tb-forward" viewBox="-3 -3 26 26">
                        <rect x="-2" y="-2" width="24" height="24" style="stroke-width:2;stroke:#242729;fill:#6C7175;opacity:0.7"></rect>
                        <g fill="#fff"><path d="m20 14v-14h-14v14z"></path><path d="m13 13v6h-12v-12h6v-1h-7v14h14v-7z"></path></g>
                    </symbol>
                    <symbol id="tb-backward" viewBox="-3 -3 26 26">
                        <rect x="-2" y="-2" width="24" height="24" style="stroke-width:2;stroke:#242729;fill:#6C7175;opacity:0.7"></rect>
                        <path d="m20 0h-14v6h-6v14h14v-6h6zm-1 13h-12v-12h12z" fill="#fff"></path>
                    </symbol>
                    <symbol id="tb-edit-group" viewBox="-3 -3 26 26">
                        <rect x="-2" y="-2" width="24" height="24" style="stroke-width:2;stroke:#242729;fill:#6C7175;opacity:0.7"></rect>
                        <g fill="#fff"><path d="m17 10v9h-16v-16h9l1-1h-11v18h18v-11z"></path><path d="m18.8 4-9.9 9.9-4.9 2.1 2.1-4.9 9.9-9.9z"></path></g>
                    </symbol>

                    <pattern id="transparent-background" width="32" height="32" patternUnits="userSpaceOnUse">
                        <rect x="0" y="0" width="16" height="16" fill="#E6E6E6"></rect>
                        <rect x="16" y="16" width="16" height="16" fill="#E6E6E6"></rect>

                        <rect x="0" y="16" width="16" height="16" fill="#FFFFFF"></rect>
                        <rect x="16" y="0" width="16" height="16" fill="#FFFFFF"></rect>
                    </pattern>

                    <pattern id="grid8L" x="0" y="0" width="64" height="32" patternUnits="userSpaceOnUse">
                    <line x1="0" y1="0" x2="64" y2="32" stroke-width="1" stroke="#D3D3D3" stroke-opacity="1"></line><line x1="0" y2="0" x2="64" y1="32" stroke-width="1" stroke="#D3D3D3" stroke-opacity="1"></line></pattern>
                    <pattern id="grid8" x="-4" y="-2" width="64" height="32" patternUnits="userSpaceOnUse">
                    <circle cx="4" cy="2" r="1" stroke-width="1" stroke="grey" fill="lightgrey"></circle><circle cx="4" cy="10" r="1" stroke-width="0" stroke="grey" fill="lightgrey"></circle><circle cx="4" cy="18" r="1" stroke-width="0" stroke="grey" fill="lightgrey"></circle><circle cx="4" cy="26" r="1" stroke-width="0" stroke="grey" fill="lightgrey"></circle><circle cx="12" cy="2" r="1" stroke-width="0" stroke="grey" fill="lightgrey"></circle><circle cx="12" cy="10" r="1" stroke-width="0" stroke="grey" fill="lightgrey"></circle><circle cx="12" cy="18" r="1" stroke-width="0" stroke="grey" fill="lightgrey"></circle><circle cx="12" cy="26" r="1" stroke-width="0" stroke="grey" fill="lightgrey"></circle><circle cx="20" cy="2" r="1" stroke-width="0" stroke="grey" fill="lightgrey"></circle><circle cx="20" cy="10" r="1" stroke-width="0" stroke="grey" fill="lightgrey"></circle><circle cx="20" cy="18" r="1" stroke-width="0" stroke="grey" fill="lightgrey"></circle><circle cx="20" cy="26" r="1" stroke-width="0" stroke="grey" fill="lightgrey"></circle><circle cx="28" cy="2" r="1" stroke-width="0" stroke="grey" fill="lightgrey"></circle><circle cx="28" cy="10" r="1" stroke-width="0" stroke="grey" fill="lightgrey"></circle><circle cx="28" cy="18" r="1" stroke-width="0" stroke="grey" fill="lightgrey"></circle><circle cx="28" cy="26" r="1" stroke-width="0" stroke="grey" fill="lightgrey"></circle><circle cx="36" cy="2" r="1" stroke-width="1" stroke="grey" fill="lightgrey"></circle><circle cx="36" cy="10" r="1" stroke-width="0" stroke="grey" fill="lightgrey"></circle><circle cx="36" cy="18" r="1" stroke-width="0" stroke="grey" fill="lightgrey"></circle><circle cx="36" cy="26" r="1" stroke-width="0" stroke="grey" fill="lightgrey"></circle><circle cx="44" cy="2" r="1" stroke-width="0" stroke="grey" fill="lightgrey"></circle><circle cx="44" cy="10" r="1" stroke-width="0" stroke="grey" fill="lightgrey"></circle><circle cx="44" cy="18" r="1" stroke-width="0" stroke="grey" fill="lightgrey"></circle><circle cx="44" cy="26" r="1" stroke-width="0" stroke="grey" fill="lightgrey"></circle><circle cx="52" cy="2" r="1" stroke-width="0" stroke="grey" fill="lightgrey"></circle><circle cx="52" cy="10" r="1" stroke-width="0" stroke="grey" fill="lightgrey"></circle><circle cx="52" cy="18" r="1" stroke-width="0" stroke="grey" fill="lightgrey"></circle><circle cx="52" cy="26" r="1" stroke-width="0" stroke="grey" fill="lightgrey"></circle><circle cx="60" cy="2" r="1" stroke-width="0" stroke="grey" fill="lightgrey"></circle><circle cx="60" cy="10" r="1" stroke-width="0" stroke="grey" fill="lightgrey"></circle><circle cx="60" cy="18" r="1" stroke-width="0" stroke="grey" fill="lightgrey"></circle><circle cx="60" cy="26" r="1" stroke-width="0" stroke="grey" fill="lightgrey"></circle></pattern>
                    <pattern id="grid8F" x="-4" y="-2" width="64" height="32" patternUnits="userSpaceOnUse">
                    <circle cx="4" cy="2" r="1" stroke-width="1" stroke="grey" fill="lightgrey"></circle><circle cx="36" cy="2" r="1" stroke-width="1" stroke="grey" fill="lightgrey"></circle></pattern>
                    <pattern id="grid4L" x="0" y="0" width="32" height="16" patternUnits="userSpaceOnUse">
                    <line x1="0" y1="0" x2="32" y2="16" stroke-width="0.5" stroke="#D3D3D3" stroke-opacity="1"></line><line x1="0" y2="0" x2="32" y1="16" stroke-width="0.5" stroke="#D3D3D3" stroke-opacity="1"></line></pattern>
                    <pattern id="grid4" x="-2" y="-1" width="32" height="16" patternUnits="userSpaceOnUse">
                    <circle cx="2" cy="1" r="0.5" stroke-width="0.5" stroke="grey" fill="lightgrey"></circle><circle cx="2" cy="5" r="0.5" stroke-width="0" stroke="grey" fill="lightgrey"></circle><circle cx="2" cy="9" r="0.5" stroke-width="0" stroke="grey" fill="lightgrey"></circle><circle cx="2" cy="13" r="0.5" stroke-width="0" stroke="grey" fill="lightgrey"></circle><circle cx="6" cy="1" r="0.5" stroke-width="0" stroke="grey" fill="lightgrey"></circle><circle cx="6" cy="5" r="0.5" stroke-width="0" stroke="grey" fill="lightgrey"></circle><circle cx="6" cy="9" r="0.5" stroke-width="0" stroke="grey" fill="lightgrey"></circle><circle cx="6" cy="13" r="0.5" stroke-width="0" stroke="grey" fill="lightgrey"></circle><circle cx="10" cy="1" r="0.5" stroke-width="0" stroke="grey" fill="lightgrey"></circle><circle cx="10" cy="5" r="0.5" stroke-width="0" stroke="grey" fill="lightgrey"></circle><circle cx="10" cy="9" r="0.5" stroke-width="0" stroke="grey" fill="lightgrey"></circle><circle cx="10" cy="13" r="0.5" stroke-width="0" stroke="grey" fill="lightgrey"></circle><circle cx="14" cy="1" r="0.5" stroke-width="0" stroke="grey" fill="lightgrey"></circle><circle cx="14" cy="5" r="0.5" stroke-width="0" stroke="grey" fill="lightgrey"></circle><circle cx="14" cy="9" r="0.5" stroke-width="0" stroke="grey" fill="lightgrey"></circle><circle cx="14" cy="13" r="0.5" stroke-width="0" stroke="grey" fill="lightgrey"></circle><circle cx="18" cy="1" r="0.5" stroke-width="0.5" stroke="grey" fill="lightgrey"></circle><circle cx="18" cy="5" r="0.5" stroke-width="0" stroke="grey" fill="lightgrey"></circle><circle cx="18" cy="9" r="0.5" stroke-width="0" stroke="grey" fill="lightgrey"></circle><circle cx="18" cy="13" r="0.5" stroke-width="0" stroke="grey" fill="lightgrey"></circle><circle cx="22" cy="1" r="0.5" stroke-width="0" stroke="grey" fill="lightgrey"></circle><circle cx="22" cy="5" r="0.5" stroke-width="0" stroke="grey" fill="lightgrey"></circle><circle cx="22" cy="9" r="0.5" stroke-width="0" stroke="grey" fill="lightgrey"></circle><circle cx="22" cy="13" r="0.5" stroke-width="0" stroke="grey" fill="lightgrey"></circle><circle cx="26" cy="1" r="0.5" stroke-width="0" stroke="grey" fill="lightgrey"></circle><circle cx="26" cy="5" r="0.5" stroke-width="0" stroke="grey" fill="lightgrey"></circle><circle cx="26" cy="9" r="0.5" stroke-width="0" stroke="grey" fill="lightgrey"></circle><circle cx="26" cy="13" r="0.5" stroke-width="0" stroke="grey" fill="lightgrey"></circle><circle cx="30" cy="1" r="0.5" stroke-width="0" stroke="grey" fill="lightgrey"></circle><circle cx="30" cy="5" r="0.5" stroke-width="0" stroke="grey" fill="lightgrey"></circle><circle cx="30" cy="9" r="0.5" stroke-width="0" stroke="grey" fill="lightgrey"></circle><circle cx="30" cy="13" r="0.5" stroke-width="0" stroke="grey" fill="lightgrey"></circle></pattern>
                    <pattern id="grid4F" x="-2" y="-1" width="32" height="16" patternUnits="userSpaceOnUse">
                    <circle cx="2" cy="1" r="0.5" stroke-width="0.5" stroke="grey" fill="lightgrey"></circle><circle cx="18" cy="1" r="0.5" stroke-width="0.5" stroke="grey" fill="lightgrey"></circle></pattern>
                    <pattern id="grid2L" x="0" y="0" width="16" height="8" patternUnits="userSpaceOnUse">
                    <line x1="0" y1="0" x2="16" y2="8" stroke-width="0.25" stroke="#D3D3D3" stroke-opacity="1"></line><line x1="0" y2="0" x2="16" y1="8" stroke-width="0.25" stroke="#D3D3D3" stroke-opacity="1"></line></pattern>
                    <pattern id="grid2" x="-1" y="-0.5" width="16" height="8" patternUnits="userSpaceOnUse">
                    <circle cx="1" cy="0.5" r="0.25" stroke-width="0.25" stroke="grey" fill="lightgrey"></circle><circle cx="1" cy="2.5" r="0.25" stroke-width="0" stroke="grey" fill="lightgrey"></circle><circle cx="1" cy="4.5" r="0.25" stroke-width="0" stroke="grey" fill="lightgrey"></circle><circle cx="1" cy="6.5" r="0.25" stroke-width="0" stroke="grey" fill="lightgrey"></circle><circle cx="3" cy="0.5" r="0.25" stroke-width="0" stroke="grey" fill="lightgrey"></circle><circle cx="3" cy="2.5" r="0.25" stroke-width="0" stroke="grey" fill="lightgrey"></circle><circle cx="3" cy="4.5" r="0.25" stroke-width="0" stroke="grey" fill="lightgrey"></circle><circle cx="3" cy="6.5" r="0.25" stroke-width="0" stroke="grey" fill="lightgrey"></circle><circle cx="5" cy="0.5" r="0.25" stroke-width="0" stroke="grey" fill="lightgrey"></circle><circle cx="5" cy="2.5" r="0.25" stroke-width="0" stroke="grey" fill="lightgrey"></circle><circle cx="5" cy="4.5" r="0.25" stroke-width="0" stroke="grey" fill="lightgrey"></circle><circle cx="5" cy="6.5" r="0.25" stroke-width="0" stroke="grey" fill="lightgrey"></circle><circle cx="7" cy="0.5" r="0.25" stroke-width="0" stroke="grey" fill="lightgrey"></circle><circle cx="7" cy="2.5" r="0.25" stroke-width="0" stroke="grey" fill="lightgrey"></circle><circle cx="7" cy="4.5" r="0.25" stroke-width="0" stroke="grey" fill="lightgrey"></circle><circle cx="7" cy="6.5" r="0.25" stroke-width="0" stroke="grey" fill="lightgrey"></circle><circle cx="9" cy="0.5" r="0.25" stroke-width="0.25" stroke="grey" fill="lightgrey"></circle><circle cx="9" cy="2.5" r="0.25" stroke-width="0" stroke="grey" fill="lightgrey"></circle><circle cx="9" cy="4.5" r="0.25" stroke-width="0" stroke="grey" fill="lightgrey"></circle><circle cx="9" cy="6.5" r="0.25" stroke-width="0" stroke="grey" fill="lightgrey"></circle><circle cx="11" cy="0.5" r="0.25" stroke-width="0" stroke="grey" fill="lightgrey"></circle><circle cx="11" cy="2.5" r="0.25" stroke-width="0" stroke="grey" fill="lightgrey"></circle><circle cx="11" cy="4.5" r="0.25" stroke-width="0" stroke="grey" fill="lightgrey"></circle><circle cx="11" cy="6.5" r="0.25" stroke-width="0" stroke="grey" fill="lightgrey"></circle><circle cx="13" cy="0.5" r="0.25" stroke-width="0" stroke="grey" fill="lightgrey"></circle><circle cx="13" cy="2.5" r="0.25" stroke-width="0" stroke="grey" fill="lightgrey"></circle><circle cx="13" cy="4.5" r="0.25" stroke-width="0" stroke="grey" fill="lightgrey"></circle><circle cx="13" cy="6.5" r="0.25" stroke-width="0" stroke="grey" fill="lightgrey"></circle><circle cx="15" cy="0.5" r="0.25" stroke-width="0" stroke="grey" fill="lightgrey"></circle><circle cx="15" cy="2.5" r="0.25" stroke-width="0" stroke="grey" fill="lightgrey"></circle><circle cx="15" cy="4.5" r="0.25" stroke-width="0" stroke="grey" fill="lightgrey"></circle><circle cx="15" cy="6.5" r="0.25" stroke-width="0" stroke="grey" fill="lightgrey"></circle></pattern>
                    <pattern id="grid2F" x="-1" y="-0.5" width="16" height="8" patternUnits="userSpaceOnUse">
                    <circle cx="1" cy="0.5" r="0.25" stroke-width="0.25" stroke="grey" fill="lightgrey"></circle><circle cx="9" cy="0.5" r="0.25" stroke-width="0.25" stroke="grey" fill="lightgrey"></circle></pattern>
                    <pattern id="gridoffL" x="0" y="0" width="16" height="8" patternUnits="userSpaceOnUse">
                    <line x1="0" y1="0" x2="16" y2="8" stroke-width="0.25" stroke="#D3D3D3" stroke-opacity="1"></line><line x1="0" y2="0" x2="16" y1="8" stroke-width="0.25" stroke="#D3D3D3" stroke-opacity="1"></line></pattern>
                    <pattern id="gridoff" x="-1" y="-0.5" width="16" height="8" patternUnits="userSpaceOnUse">
                    </pattern>
                    <pattern id="gridoffF" x="-1" y="-0.5" width="16" height="8" patternUnits="userSpaceOnUse">
                    </pattern>

                </defs>
                <defs id="icograms-svg-defs">
                    <style id="icograms-svg-defs-style-fonts" type="text/css">

                    </style>
                </defs>
            <g id="chart-top-container"><g id="chart-background-container"><g id="chart-transparent"><rect width="8000" height="8000" fill="rgb(255, 255, 255)"></rect><rect x="0" y="0" width="8000" height="8000" fill="url(#transparent-background)"></rect></g><rect id="chart-background-color" width="8000" height="8000" fill="#FFFFFF" stroke="none" fill-opacity="1.0"></rect></g><g id="chart-grid-container-back" style="pointer-events:none"><g id="chart-grid-cell-back"><rect x="0" y="0" width="8000" height="8000" fill="url(#grid8L)"></rect></g><g id="chart-grid-dotted-back"><rect x="0" y="0" width="8000" height="8000" fill="url(#grid8)"></rect></g></g><g id="chart-container"><g id="i68" class="lvl-1" transform="translate(608,272)"><g><path d="M0,-32L0,-64L64,-32L64,0Z" fill="#3399CC"></path> <path d="M0,-32L0,-64L64,-32L64,0Z" opacity="0.11"></path> <path d="M64,-32L64,0L96,-16L96,-48Z" fill="#3399CC"></path> <path d="M64,-32L64,0L96,-16L96,-48Z" opacity="0.29"></path> <path d="M0,-64L64,-32L96,-48L32,-80Z" fill="#3399CC"></path> </g></g><g id="i11" class="lvl-1" transform="translate(640,336)"><g><path d="M0,-16L0,-80L32,-64L32,0Z" fill="#3399CC"></path> <path d="M0,-16L0,-80L32,-64L32,0Z" opacity="0.11"></path> <path d="M32,-64L32,0L96,-32L96,-96Z" fill="#3399CC"></path> <path d="M32,-64L32,0L96,-32L96,-96Z" opacity="0.29"></path> <path d="M0,-80L32,-64L96,-96L64,-112Z" fill="#3399CC"></path> </g></g><g id="i10" class="lvl-1" transform="translate(704,336)"><g><path d="M0,-16L0,-80L32,-64L32,0Z" fill="#3399CC"></path> <path d="M0,-16L0,-80L32,-64L32,0Z" opacity="0.11"></path> <path d="M32,-64L32,0L64,-16L64,-80Z" fill="#3399CC"></path> <path d="M32,-64L32,0L64,-16L64,-80Z" opacity="0.29"></path> <path d="M0,-80L32,-64L64,-80L32,-96Z" fill="#3399CC"></path> </g></g><g id="i20" class="lvl-1" transform="translate(704,232)"><g>
<g>
	<polygon fill="#3399CC" points="60,6 58,7 56,6 54,7 52,6 50,7 48,6 46,7 44,6 42,7 40,6 38,7 36,6 34,7 32,6 0,22 0,24 32,40    64,24 64,8  "></polygon>
	<polygon opacity="0.29" points="64,8 64,24 32,40 32,24  "></polygon>
	<polygon opacity="0.11" points="0,22 4,24 4,22 8,24 8,22 12,24 12,22 16,24 16,22 20,24 20,22 24,24 24,22 28,24 28,22 32,24    32,40 0,24  "></polygon>
</g>

</g></g><g id="i18" class="lvl-1" transform="translate(672,352)"><g><path d="M0,-16L0,-64L32,-48L32,0Z" fill="#3399CC"></path> <path d="M0,-16L0,-64L32,-48L32,0Z" opacity="0.11"></path> <path d="M32,-48L32,0L64,-16L64,-64Z" fill="#3399CC"></path> <path d="M32,-48L32,0L64,-16L64,-64Z" opacity="0.29"></path> <path d="M0,-64L32,-48L64,-64L32,-80Z" fill="#3399CC"></path> </g></g><g id="i19" class="lvl-1" transform="translate(704,368)"><g><path d="M0,-16L0,-48L32,-32L32,0Z" fill="#3399CC"></path> <path d="M0,-16L0,-48L32,-32L32,0Z" opacity="0.11"></path> <path d="M32,-32L32,0L64,-16L64,-48Z" fill="#3399CC"></path> <path d="M32,-32L32,0L64,-16L64,-48Z" opacity="0.29"></path> <path d="M0,-48L32,-32L64,-48L32,-64Z" fill="#3399CC"></path> </g></g><g id="i12" class="lvl-1" transform="translate(736,336)"><g><path d="M0,-16L0,-80L32,-64L32,0Z" fill="#3399CC"></path> <path d="M0,-16L0,-80L32,-64L32,0Z" opacity="0.11"></path> <path d="M32,-64L32,0L64,-16L64,-80Z" fill="#3399CC"></path> <path d="M32,-64L32,0L64,-16L64,-80Z" opacity="0.29"></path> <path d="M0,-80L32,-64L64,-80L32,-96Z" fill="#3399CC"></path> </g></g><g id="i9" class="lvl-1" transform="translate(640,432)"><g><path d="M0,-16L0,-48L32,-32L32,0Z" fill="#3399CC"></path> <path d="M0,-16L0,-48L32,-32L32,0Z" opacity="0.11"></path> <path d="M32,-32L32,0L576,-272L576,-304Z" fill="#3399CC"></path> <path d="M32,-32L32,0L576,-272L576,-304Z" opacity="0.29"></path> <path d="M0,-48L32,-32L576,-304L544,-320Z" fill="#3399CC"></path> </g></g><g id="i16" class="lvl-1" transform="translate(704,288)"><g>
<polygon fill="#3399CC" points="32,0 36,2 36,4 40,6 40,8 44,10 44,12 48,14 48,16 52,18 52,20 56,22 56,24 60,26 60,28 64,30   64,32 32,48 0,32 0,16 "></polygon>
<polygon opacity="0.29" points="64,30 32,46 32,48 64,32 "></polygon>
<polygon opacity="0.29" points="60,26 28,42 28,44 60,28 "></polygon>
<polygon opacity="0.29" points="56,22 24,38 24,40 56,24 "></polygon>
<polygon opacity="0.29" points="52,18 20,34 20,36 52,20 "></polygon>
<polygon opacity="0.29" points="48,14 16,30 16,32 48,16 "></polygon>
<polygon opacity="0.29" points="44,10 12,26 12,28 44,12 "></polygon>
<polygon opacity="0.29" points="40,6 8,22 8,24 40,8 "></polygon>
<polygon opacity="0.29" points="36,2 4,18 4,20 36,4 "></polygon>
<polygon opacity="0.11" points="4,18 4,20 8,22 8,23 8,24 12,26 12,28 16,30 16,32 20,34 20,36 24,38 24,40 28,42 28,44 32,46   32,48 0,32 0,16 "></polygon>

</g></g><g id="i17" class="lvl-1" transform="translate(672,256)"><g>
<polygon fill="#3399CC" points="32,0 36,2 36,4 40,6 40,8 44,10 44,12 48,14 48,16 52,18 52,20 56,22 56,24 60,26 60,28 64,30   64,32 32,48 0,32 0,16 "></polygon>
<polygon opacity="0.29" points="64,30 32,46 32,48 64,32 "></polygon>
<polygon opacity="0.29" points="60,26 28,42 28,44 60,28 "></polygon>
<polygon opacity="0.29" points="56,22 24,38 24,40 56,24 "></polygon>
<polygon opacity="0.29" points="52,18 20,34 20,36 52,20 "></polygon>
<polygon opacity="0.29" points="48,14 16,30 16,32 48,16 "></polygon>
<polygon opacity="0.29" points="44,10 12,26 12,28 44,12 "></polygon>
<polygon opacity="0.29" points="40,6 8,22 8,24 40,8 "></polygon>
<polygon opacity="0.29" points="36,2 4,18 4,20 36,4 "></polygon>
<polygon opacity="0.11" points="4,18 4,20 8,22 8,23 8,24 12,26 12,28 16,30 16,32 20,34 20,36 24,38 24,40 28,42 28,44 32,46   32,48 0,32 0,16 "></polygon>

</g></g><g id="i21" class="lvl-1" transform="translate(736,232)"><g>
<g>
	<polygon fill="#3399CC" points="60,6 58,7 56,6 54,7 52,6 50,7 48,6 46,7 44,6 42,7 40,6 38,7 36,6 34,7 32,6 0,22 0,24 32,40    64,24 64,8  "></polygon>
	<polygon opacity="0.29" points="64,8 64,24 32,40 32,24  "></polygon>
	<polygon opacity="0.11" points="0,22 4,24 4,22 8,24 8,22 12,24 12,22 16,24 16,22 20,24 20,22 24,24 24,22 28,24 28,22 32,24    32,40 0,24  "></polygon>
</g>

</g></g><g id="i35" class="lvl-1" transform="translate(800,384)"><g><path d="M0,-16L0,-96L32,-80L32,0Z" fill="#3399CC"></path> <path d="M0,-16L0,-96L32,-80L32,0Z" opacity="0.11"></path> <path d="M32,-80L32,0L64,-16L64,-96Z" fill="#3399CC"></path> <path d="M32,-80L32,0L64,-16L64,-96Z" opacity="0.29"></path> <path d="M0,-96L32,-80L64,-96L32,-112Z" fill="#3399CC"></path> </g></g><g id="i36" class="lvl-1" transform="translate(832,400)"><g><path d="M0,-16L0,-80L32,-64L32,0Z" fill="#3399CC"></path> <path d="M0,-16L0,-80L32,-64L32,0Z" opacity="0.11"></path> <path d="M32,-64L32,0L64,-16L64,-80Z" fill="#3399CC"></path> <path d="M32,-64L32,0L64,-16L64,-80Z" opacity="0.29"></path> <path d="M0,-80L32,-64L64,-80L32,-96Z" fill="#3399CC"></path> </g></g><g id="i37" class="lvl-1" transform="translate(768,400)"><g><path d="M0,-16L0,-48L32,-32L32,0Z" fill="#3399CC"></path> <path d="M0,-16L0,-48L32,-32L32,0Z" opacity="0.11"></path> <path d="M32,-32L32,0L64,-16L64,-48Z" fill="#3399CC"></path> <path d="M32,-32L32,0L64,-16L64,-48Z" opacity="0.29"></path> <path d="M0,-48L32,-32L64,-48L32,-64Z" fill="#3399CC"></path> </g></g><g id="i40" class="lvl-1" transform="translate(768,328)"><g>
<g>
	<polygon fill="#3399CC" points="60,6 58,7 56,6 54,7 52,6 50,7 48,6 46,7 44,6 42,7 40,6 38,7 36,6 34,7 32,6 0,22 0,24 32,40    64,24 64,8  "></polygon>
	<polygon opacity="0.29" points="64,8 64,24 32,40 32,24  "></polygon>
	<polygon opacity="0.11" points="0,22 4,24 4,22 8,24 8,22 12,24 12,22 16,24 16,22 20,24 20,22 24,24 24,22 28,24 28,22 32,24    32,40 0,24  "></polygon>
</g>

</g></g><g id="i41" class="lvl-1" transform="translate(800,416)"><g><path d="M0,-16L0,-64L32,-48L32,0Z" fill="#3399CC"></path> <path d="M0,-16L0,-64L32,-48L32,0Z" opacity="0.11"></path> <path d="M32,-48L32,0L64,-16L64,-64Z" fill="#3399CC"></path> <path d="M32,-48L32,0L64,-16L64,-64Z" opacity="0.29"></path> <path d="M0,-64L32,-48L64,-64L32,-80Z" fill="#3399CC"></path> </g></g><g id="i42" class="lvl-1" transform="translate(800,328)"><g>
<g>
	<polygon fill="#3399CC" points="60,6 58,7 56,6 54,7 52,6 50,7 48,6 46,7 44,6 42,7 40,6 38,7 36,6 34,7 32,6 0,22 0,24 32,40    64,24 64,8  "></polygon>
	<polygon opacity="0.29" points="64,8 64,24 32,40 32,24  "></polygon>
	<polygon opacity="0.11" points="0,22 4,24 4,22 8,24 8,22 12,24 12,22 16,24 16,22 20,24 20,22 24,24 24,22 28,24 28,22 32,24    32,40 0,24  "></polygon>
</g>

</g></g><g id="i43" class="lvl-1" transform="translate(832,432)"><g><path d="M0,-16L0,-80L32,-64L32,0Z" fill="#3399CC"></path> <path d="M0,-16L0,-80L32,-64L32,0Z" opacity="0.11"></path> <path d="M32,-64L32,0L96,-32L96,-96Z" fill="#3399CC"></path> <path d="M32,-64L32,0L96,-32L96,-96Z" opacity="0.29"></path> <path d="M0,-80L32,-64L96,-96L64,-112Z" fill="#3399CC"></path> </g></g><g id="i44" class="lvl-1" transform="translate(832,288)"><g>
<polygon fill="#3399CC" points="32,0 36,2 36,4 40,6 40,8 44,10 44,12 48,14 48,16 52,18 52,20 56,22 56,24 60,26 60,28 64,30   64,32 32,48 0,32 0,16 "></polygon>
<polygon opacity="0.29" points="64,30 32,46 32,48 64,32 "></polygon>
<polygon opacity="0.29" points="60,26 28,42 28,44 60,28 "></polygon>
<polygon opacity="0.29" points="56,22 24,38 24,40 56,24 "></polygon>
<polygon opacity="0.29" points="52,18 20,34 20,36 52,20 "></polygon>
<polygon opacity="0.29" points="48,14 16,30 16,32 48,16 "></polygon>
<polygon opacity="0.29" points="44,10 12,26 12,28 44,12 "></polygon>
<polygon opacity="0.29" points="40,6 8,22 8,24 40,8 "></polygon>
<polygon opacity="0.29" points="36,2 4,18 4,20 36,4 "></polygon>
<polygon opacity="0.11" points="4,18 4,20 8,22 8,23 8,24 12,26 12,28 16,30 16,32 20,34 20,36 24,38 24,40 28,42 28,44 32,46   32,48 0,32 0,16 "></polygon>

</g></g><g id="i48" class="lvl-1" transform="translate(864,208)scale(2.00)scale(0.1)"><g><path d="m30 125 100-50 4 2v180l-100 50-4-2z" fill="#baa794"></path><path d="m44 302 80-40v-170l-80 40z" fill="#762c07"></path><path d="m118 259v-164l6-3v170l-80 40v-6z" opacity=".3"></path><path d="m50 139v32l62-31v-32z" fill="#825012"></path><path d="m50 139v32l62-31v-32zm4 2 54-27v24l-54 27z" opacity=".3"></path><path d="m50 177v32l62-31v-32z" fill="#825012"></path><path d="m50 177v32l62-31v-32zm4 2 54-27v24l-54 27z" opacity=".3"></path><path d="m50 215v32l62-31v-32z" fill="#825012"></path><path d="m50 215v32l62-31v-32zm4 2 54-27v24l-54 27z" opacity=".3"></path><path d="m50 253v32l62-31v-32z" fill="#825012"></path><path d="m50 253v32l62-31v-32zm4 2 54-27v24l-54 27z" opacity=".3"></path><path d="m58 206-8 4v-6l-4 2v21l4-2v-12l8-4z" fill="#999"></path><path d="m34 127 100-50v180l-100 50z" opacity=".29"></path><path d="m34 127-4-2v180l4 2z" opacity=".11"></path>
</g></g><g id="i49" class="lvl-1" transform="translate(960,160)scale(2.00)scale(0.1)"><g><path d="m30 125 100-50 4 2v180l-100 50-4-2z" fill="#baa794"></path><path d="m44 302 80-40v-170l-80 40z" fill="#762c07"></path><path d="m118 259v-164l6-3v170l-80 40v-6z" opacity=".3"></path><path d="m50 139v32l62-31v-32z" fill="#825012"></path><path d="m50 139v32l62-31v-32zm4 2 54-27v24l-54 27z" opacity=".3"></path><path d="m50 177v32l62-31v-32z" fill="#825012"></path><path d="m50 177v32l62-31v-32zm4 2 54-27v24l-54 27z" opacity=".3"></path><path d="m50 215v32l62-31v-32z" fill="#825012"></path><path d="m50 215v32l62-31v-32zm4 2 54-27v24l-54 27z" opacity=".3"></path><path d="m50 253v32l62-31v-32z" fill="#825012"></path><path d="m50 253v32l62-31v-32zm4 2 54-27v24l-54 27z" opacity=".3"></path><path d="m58 206-8 4v-6l-4 2v21l4-2v-12l8-4z" fill="#999"></path><path d="m34 127 100-50v180l-100 50z" opacity=".29"></path><path d="m34 127-4-2v180l4 2z" opacity=".11"></path>
</g></g><g id="i50" class="lvl-1" transform="translate(1056,112)scale(2.00)scale(0.1)"><g><path d="m30 125 100-50 4 2v180l-100 50-4-2z" fill="#baa794"></path><path d="m44 302 80-40v-170l-80 40z" fill="#762c07"></path><path d="m118 259v-164l6-3v170l-80 40v-6z" opacity=".3"></path><path d="m50 139v32l62-31v-32z" fill="#825012"></path><path d="m50 139v32l62-31v-32zm4 2 54-27v24l-54 27z" opacity=".3"></path><path d="m50 177v32l62-31v-32z" fill="#825012"></path><path d="m50 177v32l62-31v-32zm4 2 54-27v24l-54 27z" opacity=".3"></path><path d="m50 215v32l62-31v-32z" fill="#825012"></path><path d="m50 215v32l62-31v-32zm4 2 54-27v24l-54 27z" opacity=".3"></path><path d="m50 253v32l62-31v-32z" fill="#825012"></path><path d="m50 253v32l62-31v-32zm4 2 54-27v24l-54 27z" opacity=".3"></path><path d="m58 206-8 4v-6l-4 2v21l4-2v-12l8-4z" fill="#999"></path><path d="m34 127 100-50v180l-100 50z" opacity=".29"></path><path d="m34 127-4-2v180l4 2z" opacity=".11"></path>
</g></g><g id="i51" class="lvl-1" transform="translate(896,224)scale(2.00)scale(0.1)"><g><path d="m30 125 100-50 4 2v180l-100 50-4-2z" fill="#baa794"></path><path d="m44 302 80-40v-170l-80 40z" fill="#762c07"></path><path d="m118 259v-164l6-3v170l-80 40v-6z" opacity=".3"></path><path d="m50 139v32l62-31v-32z" fill="#825012"></path><path d="m50 139v32l62-31v-32zm4 2 54-27v24l-54 27z" opacity=".3"></path><path d="m50 177v32l62-31v-32z" fill="#825012"></path><path d="m50 177v32l62-31v-32zm4 2 54-27v24l-54 27z" opacity=".3"></path><path d="m50 215v32l62-31v-32z" fill="#825012"></path><path d="m50 215v32l62-31v-32zm4 2 54-27v24l-54 27z" opacity=".3"></path><path d="m50 253v32l62-31v-32z" fill="#825012"></path><path d="m50 253v32l62-31v-32zm4 2 54-27v24l-54 27z" opacity=".3"></path><path d="m58 206-8 4v-6l-4 2v21l4-2v-12l8-4z" fill="#999"></path><path d="m34 127 100-50v180l-100 50z" opacity=".29"></path><path d="m34 127-4-2v180l4 2z" opacity=".11"></path>
</g></g><g id="i52" class="lvl-1" transform="translate(992,176)scale(2.00)scale(0.1)"><g><path d="m30 125 100-50 4 2v180l-100 50-4-2z" fill="#baa794"></path><path d="m44 302 80-40v-170l-80 40z" fill="#762c07"></path><path d="m118 259v-164l6-3v170l-80 40v-6z" opacity=".3"></path><path d="m50 139v32l62-31v-32z" fill="#825012"></path><path d="m50 139v32l62-31v-32zm4 2 54-27v24l-54 27z" opacity=".3"></path><path d="m50 177v32l62-31v-32z" fill="#825012"></path><path d="m50 177v32l62-31v-32zm4 2 54-27v24l-54 27z" opacity=".3"></path><path d="m50 215v32l62-31v-32z" fill="#825012"></path><path d="m50 215v32l62-31v-32zm4 2 54-27v24l-54 27z" opacity=".3"></path><path d="m50 253v32l62-31v-32z" fill="#825012"></path><path d="m50 253v32l62-31v-32zm4 2 54-27v24l-54 27z" opacity=".3"></path><path d="m58 206-8 4v-6l-4 2v21l4-2v-12l8-4z" fill="#999"></path><path d="m34 127 100-50v180l-100 50z" opacity=".29"></path><path d="m34 127-4-2v180l4 2z" opacity=".11"></path>
</g></g><g id="i53" class="lvl-1" transform="translate(1088,128)scale(2.00)scale(0.1)"><g><path d="m30 125 100-50 4 2v180l-100 50-4-2z" fill="#baa794"></path><path d="m44 302 80-40v-170l-80 40z" fill="#762c07"></path><path d="m118 259v-164l6-3v170l-80 40v-6z" opacity=".3"></path><path d="m50 139v32l62-31v-32z" fill="#825012"></path><path d="m50 139v32l62-31v-32zm4 2 54-27v24l-54 27z" opacity=".3"></path><path d="m50 177v32l62-31v-32z" fill="#825012"></path><path d="m50 177v32l62-31v-32zm4 2 54-27v24l-54 27z" opacity=".3"></path><path d="m50 215v32l62-31v-32z" fill="#825012"></path><path d="m50 215v32l62-31v-32zm4 2 54-27v24l-54 27z" opacity=".3"></path><path d="m50 253v32l62-31v-32z" fill="#825012"></path><path d="m50 253v32l62-31v-32zm4 2 54-27v24l-54 27z" opacity=".3"></path><path d="m58 206-8 4v-6l-4 2v21l4-2v-12l8-4z" fill="#999"></path><path d="m34 127 100-50v180l-100 50z" opacity=".29"></path><path d="m34 127-4-2v180l4 2z" opacity=".11"></path>
</g></g><g id="i64" class="lvl-1" transform="translate(1184,64)scale(2.00)scale(0.1)"><g><path d="m154 137-144-72-4 2v180l144 72 4-2z" fill="#e5e5e5"></path><path d="m140 314-124-62v-170l124 62z" fill="#cc291f"></path><path d="m20 250v-166l-4-2v170l62 31-8-8z" opacity=".2"></path><path d="m82 281v-166l-4-2v170l62 31-8-8z" opacity=".2"></path><path d="m150 139-144-72v180l144 72z" opacity=".11"></path><path d="m150 139 4-2v180l-4 2z" opacity=".29"></path><path d="m76 205-4-2-4 2-40-20v-4l-4-2-8 4v4l52 26 8-4z" fill="#999"></path><path d="m68 209-52-26v4l52 26z" opacity=".11"></path><path d="m68 209 8-4v4l-8 4z" opacity=".29"></path><path d="m28 181v4l-4-2z" opacity=".29"></path><path d="m138 236-4-2-4 2-40-20v-4l-4-2-8 4v4l52 26 8-4z" fill="#999"></path><path d="m130 240-52-26v4l52 26z" opacity=".11"></path><path d="m130 240 8-4v4l-8 4z" opacity=".29"></path><path d="m90 212v4l-4-2z" opacity=".29"></path>
</g></g><g id="i22" class="lvl-1" transform="translate(800,288)"><g><path d="M0,-16L0,-48L32,-32L32,0Z" fill="#3399CC"></path> <path d="M0,-16L0,-48L32,-32L32,0Z" opacity="0.11"></path> <path d="M32,-32L32,0L416,-192L416,-224Z" fill="#3399CC"></path> <path d="M32,-32L32,0L416,-192L416,-224Z" opacity="0.29"></path> <path d="M0,-48L32,-32L416,-224L384,-240Z" fill="#3399CC"></path> </g></g><g id="i54" class="lvl-1" transform="translate(896,160)scale(2.00)scale(0.1)"><g><path d="m30 125 100-50 4 2v180l-100 50-4-2z" fill="#baa794"></path><path d="m44 302 80-40v-170l-80 40z" fill="#762c07"></path><path d="m118 259v-164l6-3v170l-80 40v-6z" opacity=".3"></path><path d="m50 139v32l62-31v-32z" fill="#825012"></path><path d="m50 139v32l62-31v-32zm4 2 54-27v24l-54 27z" opacity=".3"></path><path d="m50 177v32l62-31v-32z" fill="#825012"></path><path d="m50 177v32l62-31v-32zm4 2 54-27v24l-54 27z" opacity=".3"></path><path d="m50 215v32l62-31v-32z" fill="#825012"></path><path d="m50 215v32l62-31v-32zm4 2 54-27v24l-54 27z" opacity=".3"></path><path d="m50 253v32l62-31v-32z" fill="#825012"></path><path d="m50 253v32l62-31v-32zm4 2 54-27v24l-54 27z" opacity=".3"></path><path d="m58 206-8 4v-6l-4 2v21l4-2v-12l8-4z" fill="#999"></path><path d="m34 127 100-50v180l-100 50z" opacity=".29"></path><path d="m34 127-4-2v180l4 2z" opacity=".11"></path>
</g></g><g id="i55" class="lvl-1" transform="translate(864,144)scale(2.00)scale(0.1)"><g><path d="m30 125 100-50 4 2v180l-100 50-4-2z" fill="#baa794"></path><path d="m44 302 80-40v-170l-80 40z" fill="#762c07"></path><path d="m118 259v-164l6-3v170l-80 40v-6z" opacity=".3"></path><path d="m50 139v32l62-31v-32z" fill="#825012"></path><path d="m50 139v32l62-31v-32zm4 2 54-27v24l-54 27z" opacity=".3"></path><path d="m50 177v32l62-31v-32z" fill="#825012"></path><path d="m50 177v32l62-31v-32zm4 2 54-27v24l-54 27z" opacity=".3"></path><path d="m50 215v32l62-31v-32z" fill="#825012"></path><path d="m50 215v32l62-31v-32zm4 2 54-27v24l-54 27z" opacity=".3"></path><path d="m50 253v32l62-31v-32z" fill="#825012"></path><path d="m50 253v32l62-31v-32zm4 2 54-27v24l-54 27z" opacity=".3"></path><path d="m58 206-8 4v-6l-4 2v21l4-2v-12l8-4z" fill="#999"></path><path d="m34 127 100-50v180l-100 50z" opacity=".29"></path><path d="m34 127-4-2v180l4 2z" opacity=".11"></path>
</g></g><g id="i57" class="lvl-1" transform="translate(960,96)scale(2.00)scale(0.1)"><g><path d="m30 125 100-50 4 2v180l-100 50-4-2z" fill="#baa794"></path><path d="m44 302 80-40v-170l-80 40z" fill="#762c07"></path><path d="m118 259v-164l6-3v170l-80 40v-6z" opacity=".3"></path><path d="m50 139v32l62-31v-32z" fill="#825012"></path><path d="m50 139v32l62-31v-32zm4 2 54-27v24l-54 27z" opacity=".3"></path><path d="m50 177v32l62-31v-32z" fill="#825012"></path><path d="m50 177v32l62-31v-32zm4 2 54-27v24l-54 27z" opacity=".3"></path><path d="m50 215v32l62-31v-32z" fill="#825012"></path><path d="m50 215v32l62-31v-32zm4 2 54-27v24l-54 27z" opacity=".3"></path><path d="m50 253v32l62-31v-32z" fill="#825012"></path><path d="m50 253v32l62-31v-32zm4 2 54-27v24l-54 27z" opacity=".3"></path><path d="m58 206-8 4v-6l-4 2v21l4-2v-12l8-4z" fill="#999"></path><path d="m34 127 100-50v180l-100 50z" opacity=".29"></path><path d="m34 127-4-2v180l4 2z" opacity=".11"></path>
</g></g><g id="i58" class="lvl-1" transform="translate(992,112)scale(2.00)scale(0.1)"><g><path d="m111.5 77.7c-10.1-5.8-23-7-34.9-1-28.5 14.3-46.6 43.5-46.6 75.5v152.8l4 1.8v.2l100-50v-145.3c0-15.9-9.6-28.5-22.5-34z" fill="#baa794"></path><path d="m124 262-80 40v-144.4c0-27.9 15.8-53.5 40.8-66 18-9 39.2 4.1 39.2 24.2z" fill="#762c07"></path><path d="m118 259v-146.1c0-9.7-5-17.8-12.1-22.6 10.2 3.6 18.1 13.3 18.1 25.6v146.1l-80 40v-6z" opacity=".3"></path><path d="m34 307-4-2v-153l4 2z" opacity=".11"></path><g fill="#825012"><path d="m74.1 107c-14.8 7.4-24.1 22.5-24.1 39v13l28-14v-40z"></path><path d="m86.1 101-2.1 1.1v39.9l28-14v-11c0-13.3-14-21.9-25.9-16z"></path><path d="m50 165v36l28-14v-36z"></path><path d="m50 207v36l28-14v-36z"></path><path d="m50 249v36l28-14v-36z"></path><path d="m84 148v36l28-14v-36z"></path><path d="m84 190v36l28-14v-36z"></path><path d="m84 232v36l28-14v-36z"></path></g><path d="m74.1 107c-14.8 7.4-24.1 22.5-24.1 39v13l28-14v-40zm-20.1 36.4c0-13.7 7.7-26.2 20-32.4v32l-20 10z" opacity=".3"></path><path d="m86.1 101-2.1 1.1v39.9l28-14v-11c0-13.3-14-21.9-25.9-16zm1.9 3.1c9.2-4.6 20 2.1 20 12.4v9.6l-20 10z" opacity=".3"></path><path d="m50 165v36l28-14v-36zm4 2 20-10v28l-20 10z" opacity=".3"></path><path d="m50 207v36l28-14v-36zm4 2 20-10v28l-20 10z" opacity=".3"></path><path d="m50 249v36l28-14v-36zm4 2 20-10v28l-20 10z" opacity=".3"></path><path d="m84 148v36l28-14v-36zm4 2 20-10v28l-20 10z" opacity=".3"></path><path d="m84 190v36l28-14v-36zm4 2 20-10v28l-20 10z" opacity=".3"></path><path d="m56 200-8 4v-6l-4 2v21l4-2v-12l8-4z" fill="#999"></path><path d="m84 232v36l28-14v-36zm4 2 20-10v28l-20 10z" opacity=".3"></path><path d="m34 307 100-50v-145.3c0-27.4-28.8-45.2-53.3-33-28.6 14.3-46.7 43.5-46.7 75.5z" opacity=".29"></path>
</g></g><g id="i59" class="lvl-1" transform="translate(1056,48)scale(2.00)scale(0.1)"><g><path d="m30 125 100-50 4 2v180l-100 50-4-2z" fill="#baa794"></path><path d="m44 302 80-40v-170l-80 40z" fill="#762c07"></path><path d="m118 259v-164l6-3v170l-80 40v-6z" opacity=".3"></path><path d="m50 139v32l62-31v-32z" fill="#825012"></path><path d="m50 139v32l62-31v-32zm4 2 54-27v24l-54 27z" opacity=".3"></path><path d="m50 177v32l62-31v-32z" fill="#825012"></path><path d="m50 177v32l62-31v-32zm4 2 54-27v24l-54 27z" opacity=".3"></path><path d="m50 215v32l62-31v-32z" fill="#825012"></path><path d="m50 215v32l62-31v-32zm4 2 54-27v24l-54 27z" opacity=".3"></path><path d="m50 253v32l62-31v-32z" fill="#825012"></path><path d="m50 253v32l62-31v-32zm4 2 54-27v24l-54 27z" opacity=".3"></path><path d="m58 206-8 4v-6l-4 2v21l4-2v-12l8-4z" fill="#999"></path><path d="m34 127 100-50v180l-100 50z" opacity=".29"></path><path d="m34 127-4-2v180l4 2z" opacity=".11"></path>
</g></g><g id="i60" class="lvl-1" transform="translate(1088,64)scale(2.00)scale(0.1)"><g><path d="m30 125 100-50 4 2v180l-100 50-4-2z" fill="#baa794"></path><path d="m44 302 80-40v-170l-80 40z" fill="#762c07"></path><path d="m118 259v-164l6-3v170l-80 40v-6z" opacity=".3"></path><path d="m50 139v32l62-31v-32z" fill="#825012"></path><path d="m50 139v32l62-31v-32zm4 2 54-27v24l-54 27z" opacity=".3"></path><path d="m50 177v32l62-31v-32z" fill="#825012"></path><path d="m50 177v32l62-31v-32zm4 2 54-27v24l-54 27z" opacity=".3"></path><path d="m50 215v32l62-31v-32z" fill="#825012"></path><path d="m50 215v32l62-31v-32zm4 2 54-27v24l-54 27z" opacity=".3"></path><path d="m50 253v32l62-31v-32z" fill="#825012"></path><path d="m50 253v32l62-31v-32zm4 2 54-27v24l-54 27z" opacity=".3"></path><path d="m58 206-8 4v-6l-4 2v21l4-2v-12l8-4z" fill="#999"></path><path d="m34 127 100-50v180l-100 50z" opacity=".29"></path><path d="m34 127-4-2v180l4 2z" opacity=".11"></path>
</g></g><g id="i61" class="lvl-1" transform="translate(960,256)"><g><path d="M0,-48L0,-64L96,-16L96,0Z" fill="#3399CC"></path> <path d="M0,-48L0,-64L96,-16L96,0Z" opacity="0.11"></path> <path d="M96,-16L96,0L192,-48L192,-64Z" fill="#3399CC"></path> <path d="M96,-16L96,0L192,-48L192,-64Z" opacity="0.29"></path> <path d="M0,-64L96,-16L192,-64L96,-112Z" fill="#3399CC"></path> </g></g><g id="i62" class="lvl-1" transform="translate(1048,176)scale(12)scale(0.1)"><g><path d="m14 11v2l1 .5 1-.5v-2l-1-.5z" fill="#539B00"></path><path d="m15 13.5-1-.5v-2l1 .5z" opacity=".11"></path><path d="m15 13.5 1-.5v-2l-1 .5z" opacity=".29"></path><path d="m12 12.5v2l1 .5 1-.5v-2l-1-.5z" fill="#539B00"></path><path d="m13 15-1-.5v-2l1 .5z" opacity=".11"></path><path d="m13 15 1-.5v-2l-1 .5z" opacity=".29"></path><path d="m16.4 9.9c-.2-.1-.4-.1-.5 0l-8.6 4.5c-.2 0-.3.2-.3.4 0 .4.3.9.7 1.1.2.1.4.1.5 0 0 0 8.6-4.5 8.7-4.5.1-.1.2-.2.2-.4 0-.4-.3-.9-.7-1.1z" fill="#539B00"></path><path d="m8.3 15.9c.1 0 8.6-4.5 8.7-4.5.1-.1.2-.2.2-.4s-.1-.3-.1-.5l-8.8 4.5c.1.2.1.3.1.5.1.2 0 .3-.1.4z" opacity=".29"></path><path d="m8.5 15.5c0 .4-.3.6-.7.4-.4-.3-.8-.8-.8-1.1 0-.4.3-.6.7-.4s.8.7.8 1.1z" opacity=".11"></path><path d="m7.9 13.3-1.7-.8c-.5-.2-1.2-.2-2 .2-1.6.8-2.9 2.7-2.9 4.3 0 .7.3 1.3.7 1.6.1.1 1.8.9 1.8.9.5.3 1.2.2 2-.2 1.6-.8 2.9-2.7 2.9-4.3.1-.9-.3-1.5-.8-1.7zm-4 4.1c0-.1 0-.1 0-.2 0-.6.5-1.4 1.1-1.7v.2c0 .7-.5 1.4-1.1 1.7z" fill="#539B00"></path><path d="m3.8 19.4c-.2-.1-1.7-.8-1.8-.9-.5-.3-.7-.8-.7-1.6 0-.6.2-1.3.6-2l1.7.8c-.4.7-.6 1.3-.6 2 0 .9.3 1.4.8 1.7z" opacity=".11"></path><path d="m5.9 13.5c-1.6.7-2.9 2.7-2.9 4.3s1.3 2.2 2.9 1.4 2.9-2.7 2.9-4.3-1.3-2.2-2.9-1.4zm-.9 4.3c-.6.3-1.1.1-1.1-.6 0-.6.5-1.4 1.1-1.7s1.1-.1 1.1.6c0 .6-.5 1.4-1.1 1.7z" opacity=".29"></path><path d="m5 15.6v.2c0 .6-.5 1.4-1.1 1.7.1.4.6.6 1.1.3.6-.3 1.1-1.1 1.1-1.7s-.5-.9-1.1-.5z" opacity=".11"></path>
</g></g><g id="i65" class="lvl-1" transform="translate(768,288)"><g><path d="M0,-16L0,-32L32,-16L32,0Z" fill="#3399CC"></path> <path d="M0,-16L0,-32L32,-16L32,0Z" opacity="0.11"></path> <path d="M32,-16L32,0L64,-16L64,-32Z" fill="#3399CC"></path> <path d="M32,-16L32,0L64,-16L64,-32Z" opacity="0.29"></path> <path d="M0,-32L32,-16L64,-32L32,-48Z" fill="#3399CC"></path> </g></g><g id="i45" class="lvl-1" transform="translate(800,256)"><g>
<polygon fill="#3399CC" points="32,0 36,2 36,4 40,6 40,8 44,10 44,12 48,14 48,16 52,18 52,20 56,22 56,24 60,26 60,28 64,30   64,32 32,48 0,32 0,16 "></polygon>
<polygon opacity="0.29" points="64,30 32,46 32,48 64,32 "></polygon>
<polygon opacity="0.29" points="60,26 28,42 28,44 60,28 "></polygon>
<polygon opacity="0.29" points="56,22 24,38 24,40 56,24 "></polygon>
<polygon opacity="0.29" points="52,18 20,34 20,36 52,20 "></polygon>
<polygon opacity="0.29" points="48,14 16,30 16,32 48,16 "></polygon>
<polygon opacity="0.29" points="44,10 12,26 12,28 44,12 "></polygon>
<polygon opacity="0.29" points="40,6 8,22 8,24 40,8 "></polygon>
<polygon opacity="0.29" points="36,2 4,18 4,20 36,4 "></polygon>
<polygon opacity="0.11" points="4,18 4,20 8,22 8,23 8,24 12,26 12,28 16,30 16,32 20,34 20,36 24,38 24,40 28,42 28,44 32,46   32,48 0,32 0,16 "></polygon>

</g></g><g id="i66" class="lvl-1" transform="translate(1184,0)scale(2.00)scale(0.1)"><g><path d="m154 137-144-72-4 2v180l144 72 4-2z" fill="#e5e5e5"></path><path d="m140 314-124-62v-170l124 62z" fill="#cc291f"></path><path d="m20 250v-166l-4-2v170l62 31-8-8z" opacity=".2"></path><path d="m82 281v-166l-4-2v170l62 31-8-8z" opacity=".2"></path><path d="m150 139-144-72v180l144 72z" opacity=".11"></path><path d="m150 139 4-2v180l-4 2z" opacity=".29"></path><path d="m76 205-4-2-4 2-40-20v-4l-4-2-8 4v4l52 26 8-4z" fill="#999"></path><path d="m68 209-52-26v4l52 26z" opacity=".11"></path><path d="m68 209 8-4v4l-8 4z" opacity=".29"></path><path d="m28 181v4l-4-2z" opacity=".29"></path><path d="m138 236-4-2-4 2-40-20v-4l-4-2-8 4v4l52 26 8-4z" fill="#999"></path><path d="m130 240-52-26v4l52 26z" opacity=".11"></path><path d="m130 240 8-4v4l-8 4z" opacity=".29"></path><path d="m90 212v4l-4-2z" opacity=".29"></path>
</g></g><g id="i67" class="lvl-1" transform="translate(608,144)scale(2.00)translate(16,0)scale(-1, 1)scale(0.1)"><g><path d="m154 137-144-72-4 2v180l144 72 4-2z" fill="#e5e5e5"></path><path d="m140 314-124-62v-170l124 62z" fill="#cc291f"></path><path d="m20 250v-166l-4-2v170l62 31-8-8z" opacity=".2"></path><path d="m82 281v-166l-4-2v170l62 31-8-8z" opacity=".2"></path><path d="m150 139-144-72v180l144 72z" opacity=".29"></path><path d="m150 139 4-2v180l-4 2z" opacity=".11"></path><path d="m76 205-4-2-4 2-40-20v-4l-4-2-8 4v4l52 26 8-4z" fill="#999"></path><path d="m68 209-52-26v4l52 26z" opacity=".29"></path><path d="m68 209 8-4v4l-8 4z" opacity=".11"></path><path d="m28 181v4l-4-2z" opacity=".11"></path><path d="m138 236-4-2-4 2-40-20v-4l-4-2-8 4v4l52 26 8-4z" fill="#999"></path><path d="m130 240-52-26v4l52 26z" opacity=".29"></path><path d="m130 240 8-4v4l-8 4z" opacity=".11"></path><path d="m90 212v4l-4-2z" opacity=".11"></path>
</g></g><g id="i69" class="lvl-1" transform="translate(896,416)"><g><path d="M0,-32L0,-64L64,-32L64,0Z" fill="#3399CC"></path> <path d="M0,-32L0,-64L64,-32L64,0Z" opacity="0.11"></path> <path d="M64,-32L64,0L96,-16L96,-48Z" fill="#3399CC"></path> <path d="M64,-32L64,0L96,-16L96,-48Z" opacity="0.29"></path> <path d="M0,-64L64,-32L96,-48L32,-80Z" fill="#3399CC"></path> </g></g><g id="i70" class="lvl-1" transform="translate(960,320)scale(2.00)translate(16,0)scale(-1, 1)scale(0.1)"><g><path d="m154 137-144-72-4 2v180l144 72 4-2z" fill="#e5e5e5"></path><path d="m140 314-124-62v-170l124 62z" fill="#cc291f"></path><path d="m20 250v-166l-4-2v170l62 31-8-8z" opacity=".2"></path><path d="m82 281v-166l-4-2v170l62 31-8-8z" opacity=".2"></path><path d="m150 139-144-72v180l144 72z" opacity=".29"></path><path d="m150 139 4-2v180l-4 2z" opacity=".11"></path><path d="m76 205-4-2-4 2-40-20v-4l-4-2-8 4v4l52 26 8-4z" fill="#999"></path><path d="m68 209-52-26v4l52 26z" opacity=".29"></path><path d="m68 209 8-4v4l-8 4z" opacity=".11"></path><path d="m28 181v4l-4-2z" opacity=".11"></path><path d="m138 236-4-2-4 2-40-20v-4l-4-2-8 4v4l52 26 8-4z" fill="#999"></path><path d="m130 240-52-26v4l52 26z" opacity=".29"></path><path d="m130 240 8-4v4l-8 4z" opacity=".11"></path><path d="m90 212v4l-4-2z" opacity=".11"></path>
</g></g><g id="i77" class="lvl-1" transform="translate(1272,68)"><g><path d="M0,-4L0,-12L8,-8L8,0Z" fill="#3399CC"></path> <path d="M0,-4L0,-12L8,-8L8,0Z" opacity="0.11"></path> <path d="M8,-8L8,0L16,-4L16,-12Z" fill="#3399CC"></path> <path d="M8,-8L8,0L16,-4L16,-12Z" opacity="0.29"></path> <path d="M0,-12L8,-8L16,-12L8,-16Z" fill="#3399CC"></path> </g></g><g id="i78" class="lvl-1" transform="translate(1290,54)scale(0.5)"><g><text fill="#2d3134" font-family="Arial" font-size="14" style="white-space:pre"><tspan x="4" y="18"><tspan style="">Ground</tspan></tspan></text>
</g></g><g id="i79" class="lvl-1" transform="translate(1272,76)scale(0.5)"><g><path d="m30 16-8-4v2h-6v4h6v2zm-8 12h-8v-24h8v6h2v-8h-10v-2l-10 2v28l10 2v-2h10v-8h-2z" fill="#2d3134"></path>
</g></g><g id="i80" class="lvl-1" transform="translate(1290,78)scale(0.5)"><g><text fill="#2d3134" font-family="Arial" font-size="14" style="white-space:pre"><tspan x="4" y="18"><tspan style="">Exit</tspan></tspan></text>
</g></g><g id="i81" class="lvl-1" transform="translate(1276,98)scale(0.5)scale(0.1)"><g><path d="m154 137-144-72-4 2v180l144 72 4-2z" fill="#e5e5e5"></path><path d="m140 314-124-62v-170l124 62z" fill="#cc291f"></path><path d="m20 250v-166l-4-2v170l62 31-8-8z" opacity=".2"></path><path d="m82 281v-166l-4-2v170l62 31-8-8z" opacity=".2"></path><path d="m150 139-144-72v180l144 72z" opacity=".11"></path><path d="m150 139 4-2v180l-4 2z" opacity=".29"></path><path d="m76 205-4-2-4 2-40-20v-4l-4-2-8 4v4l52 26 8-4z" fill="#999"></path><path d="m68 209-52-26v4l52 26z" opacity=".11"></path><path d="m68 209 8-4v4l-8 4z" opacity=".29"></path><path d="m28 181v4l-4-2z" opacity=".29"></path><path d="m138 236-4-2-4 2-40-20v-4l-4-2-8 4v4l52 26 8-4z" fill="#999"></path><path d="m130 240-52-26v4l52 26z" opacity=".11"></path><path d="m130 240 8-4v4l-8 4z" opacity=".29"></path><path d="m90 212v4l-4-2z" opacity=".29"></path>
</g></g><g id="i82" class="lvl-1" transform="translate(1290,102)scale(0.5)"><g><text fill="#2d3134" font-family="Arial" font-size="14" style="white-space:pre"><tspan x="4" y="18"><tspan style="">Fire Exit</tspan></tspan></text>
</g></g><g id="i84" class="lvl-1" transform="translate(1276,122)scale(0.5)translate(16,0)scale(-1, 1)scale(0.1)"><g><path d="m30 125 100-50 4 2v180l-100 50-4-2z" fill="#baa794"></path><path d="m44 302 80-40v-170l-80 40z" fill="#762c07"></path><path d="m118 259v-164l6-3v170l-80 40v-6z" opacity=".3"></path><path d="m50 139v32l62-31v-32z" fill="#825012"></path><path d="m50 139v32l62-31v-32zm4 2 54-27v24l-54 27z" opacity=".3"></path><path d="m50 177v32l62-31v-32z" fill="#825012"></path><path d="m50 177v32l62-31v-32zm4 2 54-27v24l-54 27z" opacity=".3"></path><path d="m50 215v32l62-31v-32z" fill="#825012"></path><path d="m50 215v32l62-31v-32zm4 2 54-27v24l-54 27z" opacity=".3"></path><path d="m50 253v32l62-31v-32z" fill="#825012"></path><path d="m50 253v32l62-31v-32zm4 2 54-27v24l-54 27z" opacity=".3"></path><path d="m58 206-8 4v-6l-4 2v21l4-2v-12l8-4z" fill="#999"></path><path d="m34 127 100-50v180l-100 50z" opacity=".11"></path><path d="m34 127-4-2v180l4 2z" opacity=".29"></path>
</g></g><g id="i85" class="lvl-1" transform="translate(1290,126)scale(0.5)"><g><text fill="#2d3134" font-family="Arial" font-size="14" style="white-space:pre"><tspan x="4" y="18"><tspan style="">Door</tspan></tspan></text>
</g></g><g id="i86" class="lvl-1" transform="translate(1276,146)scale(0.5)translate(16,0)scale(-1, 1)scale(0.1)"><g><path d="m76.7 76.7c11.9-5.9 24.8-4.8 34.9 1 12.8 5.5 22.5 18.1 22.5 33.9v145.4l-100.1 50v-.2l-4-1.8v-152.8c0-32 18.1-61.2 46.7-75.5z" fill="#baa794"></path><path d="m124 262-80 40v-144.4c0-27.9 15.8-53.5 40.8-66 18-9 39.2 4.1 39.2 24.2z" fill="#762c07"></path><path d="m118 259v-146.1c0-9.7-5-17.8-12.1-22.6 10.2 3.6 18.1 13.3 18.1 25.6v146.1l-80 40v-6z" opacity=".3"></path><path d="m34 307-4-2v-153l4 2z" opacity=".29"></path><path d="m50 145.9v13.1l62-31v-11c0-13.3-14-21.9-25.9-16l-12 6c-14.8 7.3-24.1 22.4-24.1 38.9z" fill="#825012"></path><path d="m50 165v36l62-31v-36z" fill="#825012"></path><path d="m50 165v36l62-31v-36zm4 2 54-27v28l-54 27z" opacity=".3"></path><path d="m50 207v36l62-31v-36z" fill="#825012"></path><path d="m50 207v36l62-31v-36zm4 2 54-27v28l-54 27z" opacity=".3"></path><path d="m50 249v36l62-31v-36z" fill="#825012"></path><path d="m50 249v36l62-31v-36zm4 2 54-27v28l-54 27z" opacity=".3"></path><path d="m56 200-8 4v-6l-4 2v21l4-2v-12l8-4z" fill="#999"></path><path d="m34 307 100-50v-145.3c0-27.4-28.8-45.2-53.3-33-28.6 14.3-46.7 43.5-46.7 75.5z" opacity=".11"></path><path d="m50 145.9v13.1l62-31v-11c0-13.3-14-21.9-25.9-16l-12 6c-14.8 7.3-24.1 22.4-24.1 38.9zm4-2.5c0-13.7 7.7-26.2 20-32.4l14-6.9c9.2-4.6 20 2.1 20 12.4v9.6l-54 27z" opacity=".3"></path>
</g></g><g id="i87" class="lvl-1" transform="translate(1290,150)scale(0.5)"><g><text fill="#2d3134" font-family="Arial" font-size="14" style="white-space:pre"><tspan x="4" y="18"><tspan style="">Objective Door</tspan></tspan></text>
</g></g><g id="i88" class="lvl-1" transform="translate(1274,170)scale(6)scale(0.1)"><g><path d="m14 11v2l1 .5 1-.5v-2l-1-.5z" fill="#539B00"></path><path d="m15 13.5-1-.5v-2l1 .5z" opacity=".11"></path><path d="m15 13.5 1-.5v-2l-1 .5z" opacity=".29"></path><path d="m12 12.5v2l1 .5 1-.5v-2l-1-.5z" fill="#539B00"></path><path d="m13 15-1-.5v-2l1 .5z" opacity=".11"></path><path d="m13 15 1-.5v-2l-1 .5z" opacity=".29"></path><path d="m16.4 9.9c-.2-.1-.4-.1-.5 0l-8.6 4.5c-.2 0-.3.2-.3.4 0 .4.3.9.7 1.1.2.1.4.1.5 0 0 0 8.6-4.5 8.7-4.5.1-.1.2-.2.2-.4 0-.4-.3-.9-.7-1.1z" fill="#539B00"></path><path d="m8.3 15.9c.1 0 8.6-4.5 8.7-4.5.1-.1.2-.2.2-.4s-.1-.3-.1-.5l-8.8 4.5c.1.2.1.3.1.5.1.2 0 .3-.1.4z" opacity=".29"></path><path d="m8.5 15.5c0 .4-.3.6-.7.4-.4-.3-.8-.8-.8-1.1 0-.4.3-.6.7-.4s.8.7.8 1.1z" opacity=".11"></path><path d="m7.9 13.3-1.7-.8c-.5-.2-1.2-.2-2 .2-1.6.8-2.9 2.7-2.9 4.3 0 .7.3 1.3.7 1.6.1.1 1.8.9 1.8.9.5.3 1.2.2 2-.2 1.6-.8 2.9-2.7 2.9-4.3.1-.9-.3-1.5-.8-1.7zm-4 4.1c0-.1 0-.1 0-.2 0-.6.5-1.4 1.1-1.7v.2c0 .7-.5 1.4-1.1 1.7z" fill="#539B00"></path><path d="m3.8 19.4c-.2-.1-1.7-.8-1.8-.9-.5-.3-.7-.8-.7-1.6 0-.6.2-1.3.6-2l1.7.8c-.4.7-.6 1.3-.6 2 0 .9.3 1.4.8 1.7z" opacity=".11"></path><path d="m5.9 13.5c-1.6.7-2.9 2.7-2.9 4.3s1.3 2.2 2.9 1.4 2.9-2.7 2.9-4.3-1.3-2.2-2.9-1.4zm-.9 4.3c-.6.3-1.1.1-1.1-.6 0-.6.5-1.4 1.1-1.7s1.1-.1 1.1.6c0 .6-.5 1.4-1.1 1.7z" opacity=".29"></path><path d="m5 15.6v.2c0 .6-.5 1.4-1.1 1.7.1.4.6.6 1.1.3.6-.3 1.1-1.1 1.1-1.7s-.5-.9-1.1-.5z" opacity=".11"></path>
</g></g><g id="i89" class="lvl-1" transform="translate(1292,174)scale(0.5)"><g><text fill="#2d3134" font-family="Arial" font-size="14" style="white-space:pre"><tspan x="4" y="18"><tspan style="">Key </tspan></tspan></text>
</g></g><g id="i99" class="lvl-1" transform="translate(288,608)"><g><path d="M0,-48L0,-80L96,-32L96,0Z" fill="#3399CC"></path> <path d="M0,-48L0,-80L96,-32L96,0Z" opacity="0.11"></path> <path d="M96,-32L96,0L192,-48L192,-80Z" fill="#3399CC"></path> <path d="M96,-32L96,0L192,-48L192,-80Z" opacity="0.29"></path> <path d="M0,-80L96,-32L192,-80L96,-128Z" fill="#3399CC"></path> </g></g><g id="i97" class="lvl-1" transform="translate(256,688)"><g><path d="M0,-48L0,-144L96,-96L96,0Z" fill="#3399CC"></path> <path d="M0,-48L0,-144L96,-96L96,0Z" opacity="0.11"></path> <path d="M96,-96L96,0L128,-16L128,-112Z" fill="#3399CC"></path> <path d="M96,-96L96,0L128,-16L128,-112Z" opacity="0.29"></path> <path d="M0,-144L96,-96L128,-112L32,-160Z" fill="#3399CC"></path> </g></g><g id="i98" class="lvl-1" transform="translate(192,720)"><g><path d="M0,-48L0,-112L96,-64L96,0Z" fill="#3399CC"></path> <path d="M0,-48L0,-112L96,-64L96,0Z" opacity="0.11"></path> <path d="M96,-64L96,0L128,-16L128,-80Z" fill="#3399CC"></path> <path d="M96,-64L96,0L128,-16L128,-80Z" opacity="0.29"></path> <path d="M0,-112L96,-64L128,-80L32,-128Z" fill="#3399CC"></path> </g></g><g id="i96" class="lvl-1" transform="translate(128,688)"><g><path d="M0,-48L0,-80L96,-32L96,0Z" fill="#3399CC"></path> <path d="M0,-48L0,-80L96,-32L96,0Z" opacity="0.11"></path> <path d="M96,-32L96,0L192,-48L192,-80Z" fill="#3399CC"></path> <path d="M96,-32L96,0L192,-48L192,-80Z" opacity="0.29"></path> <path d="M0,-80L96,-32L192,-80L96,-128Z" fill="#3399CC"></path> </g></g><g id="i94" class="lvl-1" transform="translate(96,704)"><g><path d="M0,-48L0,-112L96,-64L96,0Z" fill="#3399CC"></path> <path d="M0,-48L0,-112L96,-64L96,0Z" opacity="0.11"></path> <path d="M96,-64L96,0L128,-16L128,-80Z" fill="#3399CC"></path> <path d="M96,-64L96,0L128,-16L128,-80Z" opacity="0.29"></path> <path d="M0,-112L96,-64L128,-80L32,-128Z" fill="#3399CC"></path> </g></g><g id="i95" class="lvl-1" transform="translate(32,736)"><g><path d="M0,-48L0,-80L96,-32L96,0Z" fill="#3399CC"></path> <path d="M0,-48L0,-80L96,-32L96,0Z" opacity="0.11"></path> <path d="M96,-32L96,0L160,-32L160,-64Z" fill="#3399CC"></path> <path d="M96,-32L96,0L160,-32L160,-64Z" opacity="0.29"></path> <path d="M0,-80L96,-32L160,-64L64,-112Z" fill="#3399CC"></path> </g></g><g id="i100" class="lvl-1" transform="translate(448,496)"><g><path d="M0,-16L0,-48L32,-32L32,0Z" fill="#3399CC"></path> <path d="M0,-16L0,-48L32,-32L32,0Z" opacity="0.11"></path> <path d="M32,-32L32,0L64,-16L64,-48Z" fill="#3399CC"></path> <path d="M32,-32L32,0L64,-16L64,-48Z" opacity="0.29"></path> <path d="M0,-48L32,-32L64,-48L32,-64Z" fill="#3399CC"></path> </g></g><g id="i101" class="lvl-1" transform="translate(544,544)"><g><path d="M0,-16L0,-48L32,-32L32,0Z" fill="#3399CC"></path> <path d="M0,-16L0,-48L32,-32L32,0Z" opacity="0.11"></path> <path d="M32,-32L32,0L64,-16L64,-48Z" fill="#3399CC"></path> <path d="M32,-32L32,0L64,-16L64,-48Z" opacity="0.29"></path> <path d="M0,-48L32,-32L64,-48L32,-64Z" fill="#3399CC"></path> </g></g><g id="i102" class="lvl-1" transform="translate(544,448)"><g><path d="M0,-16L0,-48L32,-32L32,0Z" fill="#3399CC"></path> <path d="M0,-16L0,-48L32,-32L32,0Z" opacity="0.11"></path> <path d="M32,-32L32,0L64,-16L64,-48Z" fill="#3399CC"></path> <path d="M32,-32L32,0L64,-16L64,-48Z" opacity="0.29"></path> <path d="M0,-48L32,-32L64,-48L32,-64Z" fill="#3399CC"></path> </g></g><g id="i29" class="lvl-1" transform="translate(64,600)scale(2.00)"><g><ellipse cx="16" cy="36" fill="#999" rx="11" ry="5.5"></ellipse><path d="m16 30.5c5.9 0 10.7 2.3 11 5.3 0-.1 0-.2 0-.3 0-3-4.9-5.5-11-5.5s-11 2.5-11 5.5v.3c.3-3 5.1-5.3 11-5.3z" fill="#656565"></path><path d="m5 12v24c0-3 4.9-5.5 11-5.5s11 2.5 11 5.5v-24z" opacity=".2"></path><path d="m5 12v24c0-3 4.9-5.5 11-5.5s11 2.5 11 5.5v-24z" fill="#39c" opacity=".5"></path><ellipse cx="16" cy="12" fill="#999" rx="11" ry="5.5"></ellipse><path d="m21 8.7-5 4.8v22.5l5-4.8z" fill="#39c" opacity=".3"></path><path d="m16 13.5v22.5l5-4.8v-22.5zm4.5 17.5-4 3.9v-21.2l4-3.9z" fill="#999"></path><path d="m21 8.7-5 4.8v22.5l5-4.8z" opacity=".29"></path><path d="m5 13.5h11v22.5h-11z" fill="#39c" opacity=".3"></path><path d="m5 13.5v22.5h11v-22.5zm10.5 22h-10v-21.5h10z" fill="#999"></path><path d="m5 13.5h11v22.5h-11z" opacity=".2"></path><g fill="#39c" opacity=".3"><path d="m8 12h-3v24c0 1.5 1.1 2.8 3 3.8z"></path><path d="m24 12v27.8c1.9-1 3-2.3 3-3.8v-24z"></path></g><path d="m7.6 16v23c-1.6-.9-2.6-2.2-2.6-3.5v.5c0 1.5 1.1 2.8 3 3.8v-23.8z" fill="#999"></path><g opacity=".2"><path d="m8 12h-3v24c0 1.5 1.1 2.8 3 3.8z"></path><path d="m24 12v27.8c1.9-1 3-2.3 3-3.8v-24z"></path></g><path d="m24.5 39v-23h-.5v23.8c1.9-1 3-2.3 3-3.8v-.5c0 1.3-.9 2.5-2.5 3.5z" fill="#999"></path><path d="m24.5 39v-23h-.5v23.8c1.9-1 3-2.3 3-3.8v-.5c0 1.3-.9 2.5-2.5 3.5z" opacity=".2"></path><path d="m16 13 8 3.7v23l-8-3.7z" fill="#39c" opacity=".3"></path><path d="m16 13v23l8 3.7v-23zm7.5 25.9-7-3.2v-21.9l7 3.2z" fill="#999"></path><path d="m24 39.7-8-3.7v-23l8 3.7z" opacity=".11"></path><path d="m16 6.5c-6.1 0-11 2.5-11 5.5v1.2c0 3 4.9 5.5 11 5.5s11-2.5 11-5.5v-1.2c0-3-4.9-5.5-11-5.5z" fill="#999"></path><path d="m16 17.5c-6.1 0-11-2.5-11-5.5v1.2c0 3 4.9 5.5 11 5.5s11-2.5 11-5.5v-1.2c0 3-4.9 5.5-11 5.5z" opacity=".2"></path>
</g></g><g id="i63" class="lvl-1" transform="translate(80,640)"><g><path d="m30 16-8-4v2h-6v4h6v2zm-8 12h-8v-24h8v6h2v-8h-10v-2l-10 2v28l10 2v-2h10v-8h-2z" fill="#2d3134"></path>
</g></g></g><g id="chart-grid-container-front" style="pointer-events:none;mix-blend-mode:multiply"><g id="chart-grid-cell-front"><rect x="0" y="0" width="8000" height="8000" fill="url(#grid8L)"></rect></g><g id="chart-grid-dotted-front"><rect x="0" y="0" width="8000" height="8000" fill="url(#grid8F)"></rect></g></g><g id="chart-foreground-container"><rect id="chart-foreground-rect" width="8000" height="8000" fill="none" stroke-width="1px" stroke="rgb(64, 64, 64)" stroke-opacity="0.7"></rect></g><g id="selection-layer"></g><g id="align-lines-layer" clip-path="url(#svg-align-lines-clip)"></g><g id="global-selection-layer"></g><a href="/pricing" target="_blank" title="Upgrade to remove watermark"><g transform="translate(6400,7648)scale(8)"><g><path d="m65 30.6v-19.2l19-9.5 11.2 5.6-19.2 9.6v7.8l8 4 6.8-3.4-9-4.5 11.2-5.6 10 5v10.2l-19 9.5z" fill="#fff" opacity=".7"></path><path d="m174.9 9.9-3.5-4.3h-3.1v8.8l-5.3-8.7h-3l-4.9 8.2-1.8-1.4c.9-.4 1.6-1.3 1.6-2.3v-2c0-1.4-1.1-2.5-2.5-2.5h-8.8v10.2h4v-3.1h.5l3.4 3.1h6.8l1-1.8h4.2l1 1.8h7.4v-3.7l2.2 2.7h1.3l2.2-2.7v3.7h3.8v-10.2h-3.1zm-24-.7h-3.4v-.1zm43.1-1c0-1.4-1.1-2.5-2.5-2.5h-6.4c-1.4 0-2.5 1.1-2.5 2.5v1.7c0 .8.4 1.5.9 2l-1.3.7v.7c0 1.4 1.1 2.5 2.5 2.5h6.7c1.4 0 2.5-1.1 2.5-2.5v-1.8c0-.8-.4-1.6-1.1-2.1l1.1-.5v-.7zm-95.5 7.6h4v-10.1h-4zm27.8-10.2h-7.5c-1.4 0-2.5 1.1-2.5 2.5v5.1c0 1.4 1.1 2.5 2.5 2.5h7.5c1.4 0 2.5-1.1 2.5-2.5v-5c0-1.4-1.1-2.6-2.5-2.6zm-1.4 6.7h-4.6v-3.2h4.6zm14.7-6.7h-7c-1.4 0-2.5 1.1-2.5 2.5v5.1c0 1.4 1.1 2.5 2.5 2.5h7c1.4 0 2.5-1.1 2.5-2.5v-4h-.3l.3-.2v-.8c0-1.4-1.1-2.6-2.5-2.6zm-1.4 3.6h-3.2v3.2h-1v-3.3zm-25.6-3.6h-6.2c-1.4 0-2.5 1.1-2.5 2.5v5.1c0 1.4 1.1 2.5 2.5 2.5h6.2c1.4 0 2.5-1.1 2.5-2.5v-1.2l-2.7-1.3 2.7-1.3v-1.2c.1-1.4-1.1-2.6-2.5-2.6zm-1.4 6.7h-3.4v-3.2h3.4z" fill="#fff" opacity=".6"></path><path d="m93 16.5 9 4.5-9 4.5-9-4.5z" fill="#cc291f"></path><path d="m84 3-18 9 9 4.5 18-9z" fill="#39c"></path><path d="m84 30v9l18-9v-9z" fill="#fc0"></path><path d="m75 25.5v-9l-9-4.5v18l18 9v-9z" fill="#9c3"></path><path d="m169.3 14.8v-8.1h1.6l4 4.8 4-4.8h1.6v8.1h-1.8v-5.6l-3.6 4.6h-.4l-3.7-4.5v5.5z" fill="#242729"></path><path d="m193 8.3v-.1c0-.9-.7-1.5-1.5-1.5h-6.4c-.9 0-1.5.7-1.5 1.5v1.7c0 .9.7 1.5 1.5 1.5h5.9v1.9h-5.9v-1.2l-2 1v.1c0 .9.7 1.5 1.5 1.5h6.7c.9 0 1.5-.7 1.5-1.5v-1.8c0-.9-.7-1.5-1.5-1.5h-5.9v-1.8h5.5v1.2z" fill="#242729"></path><path d="m99.5 14.8v-8.1h2v8.1z" fill="#242729"></path><path d="m155.7 14.8 4.8-8.1h1.9l4.9 8.1h-2.2l-1-1.8h-5.4l-1 1.8zm3.8-3.3h3.7l-1.9-3.4z" fill="#242729"></path><path d="m117.3 8.2v5.1c0 .9.7 1.5 1.5 1.5h7.5c.9 0 1.5-.7 1.5-1.5v-5.1c0-.9-.7-1.5-1.5-1.5h-7.5c-.8-.1-1.5.6-1.5 1.5zm8.6 5.1h-6.6v-5.2h6.6z" fill="#242729"></path><path d="m141.1 8.4v-.2c0-.9-.7-1.5-1.5-1.5h-7c-.9 0-1.5.7-1.5 1.5v5.1c0 .9.7 1.5 1.5 1.5h7c.9 0 1.5-.7 1.5-1.5v-3.1h-5.2v1.5h3.2v1.7h-6.1v-5.3h6.2v1.2z" fill="#242729"></path><path d="m112.2 11.7v1.6h-5.4v-5.2h5.4v1.6l2-.9v-.6c0-.9-.7-1.5-1.5-1.5h-6.2c-.9 0-1.5.7-1.5 1.5v5.1c0 .9.7 1.5 1.5 1.5h6.2c.9 0 1.5-.7 1.5-1.5v-.6z" fill="#242729"></path><path d="m150.7 11.7h1.6c.9 0 1.5-.7 1.5-1.5v-2c0-.9-.7-1.5-1.5-1.5h-7.8v8.2h2v-3.1h1.9l3.4 3.1h2.8zm-4.2-1.5v-2.1h5.4v2.1z" fill="#242729"></path><path d="m42.8 22.7c-.2-.1-.5-.1-.7-.1-.7 0-1.4.2-1.9.6-.5.3-.9.8-1.2 1.3-.1-.3-.3-.5-.5-.7-.7-.8-1.7-1.2-2.8-1.2-1 0-1.9.3-2.6 1v-.8h-1.1v-2.9l-3 1.8v1.1h-.8v.6c-.2-.2-.5-.3-.8-.5-.5-.2-1-.3-1.6-.3s-1.2.1-1.8.3-1 .5-1.4.9c-.1.2-.3.4-.4.6-.1-.2-.3-.5-.5-.7-.7-.8-1.7-1.2-2.8-1.2-.9 0-1.6.2-2.3.7l-.4-.2c-.5-.3-1.1-.5-1.6-.5-.3 0-.5 0-.8.1h-2.2c-.3-.7-.8-1.2-1.3-1.7-.8-.6-1.7-.9-2.8-.9-.9 0-1.8.2-2.6.6s-1.4 1.1-1.9 1.9c-.4.8-.6 1.7-.6 2.8 0 1 .2 1.9.5 2.7.4.9 1 1.6 1.7 2.1s1.7.7 2.8.7 2.1-.3 2.9-1c.4-.3.7-.6.9-1v2.2h3.1v-4.3c0-.3 0-.7.1-.9l-1-.3 1 .2c.1 0 .2 0 .3.1l.2.1c-.1.3-.1.6-.1 1 0 1.3.4 2.3 1.1 3 .7.8 1.7 1.2 2.9 1.2.9 0 1.7-.2 2.4-.7.3-.2.5-.4.7-.7.1.2.3.5.5.7.6.5 1.3.8 2.2.8.5 0 1-.1 1.5-.3.1 0 .2-.1.2-.1l.1.2h3.4l-.1-.2c.4.2.8.3 1.4.3.3 0 .6 0 1-.1l.9-.2-.1-.4c.7.5 1.5.7 2.4.7s1.7-.2 2.4-.7c.4-.3.7-.7.9-1.1.3.5.7.9 1.1 1.2.6.4 1.2.6 1.9.6.3 0 .7 0 1-.1h2.7v-10.6h-3v2.3zm-31.4 3.6-2.1-.5-.2 1c-.1.5-.3.9-.6 1.1s-.6.3-1 .3c-.3 0-.7-.1-.9-.3-.3-.2-.4-.4-.6-.7-.2-.4-.3-.9-.3-1.5 0-.5.1-.9.2-1.3.1-.3.3-.6.6-.8s.6-.3 1.1-.3c.4 0 .6.1.8.2.2.2.4.5.5.9l.3.9 2.2-.5zm31.2 1.8c-.2.2-.3.2-.4.2s-.2 0-.4-.2-.3-.6-.3-1.1c0-.8.2-1.1.2-1.2.1-.2.3-.2.4-.2s.3 0 .4.2c.1.1.3.4.3 1.2.1.7-.1 1-.2 1.1zm15.9-3.2c-.1-.4-.3-.8-.5-1.2-.3-.4-.6-.7-1.1-.9-.4-.2-.9-.3-1.4-.3-.4 0-.7 0-1 .1h-2.5v-2.4h-3.1v10.8h5.7v-4.4c0-.7.1-.9.1-.9.1-.1.3-.2.5-.2.1 0 .2 0 .2.1 0 0 .1.2.1.6v4.8h3.1v-4.8c-.1-.6-.1-1-.1-1.3z" fill="#fff" opacity=".5"></path><g fill="#242729"><path d="m10.1 27 1.1.3c-.2.9-.7 1.6-1.3 2.1s-1.4.7-2.3.7-1.7-.2-2.3-.6-1-.9-1.3-1.6-.5-1.5-.5-2.3c0-.9.2-1.7.5-2.3s.8-1.2 1.5-1.5 1.3-.5 2.1-.5c.9 0 1.6.2 2.2.7s1 1.1 1.2 1.8l-1.1.2c-.2-.6-.5-1.1-.9-1.4s-.9-.4-1.4-.4c-.7 0-1.2.2-1.7.5s-.7.8-.9 1.3-.3 1.1-.3 1.6c0 .7.1 1.4.3 1.9s.5 1 1 1.2.9.4 1.5.4 1.2-.2 1.6-.6.8-.8 1-1.5z"></path><path d="m12.4 30v-6.2h.9v.9c.2-.4.5-.7.7-.9s.4-.2.7-.2c.4 0 .7.1 1.1.3l-.4 1c-.3-.2-.5-.2-.8-.2-.2 0-.4.1-.6.2s-.3.3-.4.6c-.1.4-.2.8-.2 1.2v3.3z"></path><path d="m20.7 28 1.1.1c-.2.6-.5 1.1-1 1.5s-1.1.5-1.8.5c-.9 0-1.6-.3-2.2-.8s-.8-1.3-.8-2.4c0-1 .3-1.9.8-2.4s1.2-.9 2.1-.9c.8 0 1.5.3 2 .8s.8 1.4.8 2.4v.3h-4.6c0 .7.2 1.2.6 1.6s.8.5 1.3.5c.4 0 .7-.1 1-.3s.6-.5.7-.9zm-3.4-1.7h3.5c0-.5-.2-.9-.4-1.2-.3-.4-.8-.6-1.3-.6s-.9.2-1.2.5-.6.7-.6 1.3z"></path><path d="m27.2 29.2c-.4.3-.8.6-1.1.7s-.7.2-1.2.2c-.7 0-1.2-.2-1.6-.5s-.6-.8-.6-1.3c0-.3.1-.6.2-.8s.3-.5.5-.6.5-.3.8-.3c.2-.1.5-.1.9-.2.9-.1 1.5-.2 1.9-.4 0-.1 0-.2 0-.3 0-.4-.1-.7-.3-.9-.3-.2-.7-.4-1.2-.4s-.9.1-1.1.3-.4.5-.5.9l-1-.1c.1-.4.2-.8.5-1.1s.5-.5.9-.6.9-.2 1.4-.2 1 .1 1.3.2.6.3.7.5.3.4.3.7c0 .2.1.5.1 1v1.4c0 1 0 1.6.1 1.9s.1.5.3.7h-1.1c-.1-.2-.2-.5-.2-.8zm-.1-2.3c-.4.2-1 .3-1.7.4-.4.1-.7.1-.9.2s-.3.2-.4.3-.1.3-.1.5c0 .3.1.5.3.7s.5.3.9.3.8-.1 1.1-.3.5-.4.7-.7c.1-.2.2-.6.2-1.1v-.3z"></path><path d="m32.1 29.1.2.9c-.3.1-.6.1-.8.1-.4 0-.7-.1-.9-.2s-.4-.3-.4-.5-.2-.6-.2-1.2v-3.6h-.8v-.8h.8v-1.5l1-.6v2.2h1.1v.8h-1.1v3.6c0 .3 0 .5.1.6s.1.2.2.2.2.1.4.1c.1-.1.2-.1.4-.1z"></path><path d="m37.4 28 1.1.1c-.2.6-.5 1.1-1 1.5s-1.1.5-1.8.5c-.9 0-1.6-.3-2.2-.8s-.8-1.3-.8-2.4c0-1 .3-1.9.8-2.4s1.2-.9 2.1-.9c.8 0 1.5.3 2 .8s.8 1.4.8 2.4v.3h-4.6c0 .7.2 1.2.6 1.6s.8.5 1.3.5c.4 0 .7-.1 1-.3s.5-.5.7-.9zm-3.5-1.7h3.5c0-.5-.2-.9-.4-1.2-.3-.4-.8-.6-1.3-.6s-.9.2-1.2.5-.5.7-.6 1.3z"></path><path d="m43.8 30v-.8c-.4.6-1 .9-1.7.9-.5 0-1-.1-1.4-.4s-.7-.7-1-1.1-.3-1.1-.3-1.7.1-1.2.3-1.7.5-.9.9-1.2.9-.4 1.4-.4c.4 0 .7.1 1 .2s.5.4.7.6v-3.1h1v8.7zm-3.3-3.1c0 .8.2 1.4.5 1.8s.7.6 1.2.6.9-.2 1.2-.6.5-1 .5-1.7c0-.9-.2-1.5-.5-1.9s-.7-.6-1.2-.6-.9.2-1.2.6-.5 1-.5 1.8z"></path><path d="m49.8 22.6v-1.2h1.1v1.2zm0 7.4v-6.2h1.1v6.2z"></path><path d="m52.5 30v-6.2h.9v.9c.5-.7 1.1-1 2-1 .4 0 .7.1 1 .2s.5.3.7.5.3.5.3.8c0 .2.1.5.1 1v3.8h-1.1v-3.8c0-.4 0-.8-.1-1s-.2-.4-.4-.5-.5-.2-.7-.2c-.4 0-.8.1-1.2.4s-.5.8-.5 1.6v3.5z"></path></g></g></g></a></g></svg>